%TF.GenerationSoftware,KiCad,Pcbnew,(6.0.1)*%
%TF.CreationDate,2022-02-08T16:55:05-03:00*%
%TF.ProjectId,connector rpi,636f6e6e-6563-4746-9f72-207270692e6b,rev?*%
%TF.SameCoordinates,Original*%
%TF.FileFunction,Copper,L1,Top*%
%TF.FilePolarity,Positive*%
%FSLAX46Y46*%
G04 Gerber Fmt 4.6, Leading zero omitted, Abs format (unit mm)*
G04 Created by KiCad (PCBNEW (6.0.1)) date 2022-02-08 16:55:05*
%MOMM*%
%LPD*%
G01*
G04 APERTURE LIST*
G04 Aperture macros list*
%AMRoundRect*
0 Rectangle with rounded corners*
0 $1 Rounding radius*
0 $2 $3 $4 $5 $6 $7 $8 $9 X,Y pos of 4 corners*
0 Add a 4 corners polygon primitive as box body*
4,1,4,$2,$3,$4,$5,$6,$7,$8,$9,$2,$3,0*
0 Add four circle primitives for the rounded corners*
1,1,$1+$1,$2,$3*
1,1,$1+$1,$4,$5*
1,1,$1+$1,$6,$7*
1,1,$1+$1,$8,$9*
0 Add four rect primitives between the rounded corners*
20,1,$1+$1,$2,$3,$4,$5,0*
20,1,$1+$1,$4,$5,$6,$7,0*
20,1,$1+$1,$6,$7,$8,$9,0*
20,1,$1+$1,$8,$9,$2,$3,0*%
G04 Aperture macros list end*
%TA.AperFunction,EtchedComponent*%
%ADD10C,0.500000*%
%TD*%
%TA.AperFunction,ComponentPad*%
%ADD11R,1.700000X1.700000*%
%TD*%
%TA.AperFunction,ComponentPad*%
%ADD12O,1.700000X1.700000*%
%TD*%
%TA.AperFunction,ConnectorPad*%
%ADD13RoundRect,0.375000X1.125000X0.375000X-1.125000X0.375000X-1.125000X-0.375000X1.125000X-0.375000X0*%
%TD*%
%TA.AperFunction,SMDPad,CuDef*%
%ADD14R,3.000000X1.500000*%
%TD*%
%TA.AperFunction,ViaPad*%
%ADD15C,0.800000*%
%TD*%
%TA.AperFunction,Conductor*%
%ADD16C,0.500000*%
%TD*%
G04 APERTURE END LIST*
D10*
%TO.C,C1*%
X31595000Y-70000000D02*
X41255000Y-70000000D01*
X41755000Y-64920000D02*
X31595000Y-64920000D01*
X31595000Y-62380000D02*
X41755000Y-62380000D01*
X31595000Y-67460000D02*
X41255000Y-67460000D01*
X31595000Y-77620000D02*
X41755000Y-77620000D01*
X31595000Y-75080000D02*
X41255000Y-75080000D01*
X31595000Y-72540000D02*
X41755000Y-72540000D01*
%TO.C,C2*%
X31595000Y-49080000D02*
X41255000Y-49080000D01*
X31595000Y-51620000D02*
X41755000Y-51620000D01*
X41755000Y-38920000D02*
X31595000Y-38920000D01*
X31595000Y-46540000D02*
X41755000Y-46540000D01*
X31595000Y-36380000D02*
X41755000Y-36380000D01*
X31595000Y-44000000D02*
X41255000Y-44000000D01*
X31595000Y-41460000D02*
X41255000Y-41460000D01*
%TD*%
D11*
%TO.P,REF\u002A\u002A,1*%
%TO.N,N/C*%
X49000000Y-67000000D03*
%TD*%
%TO.P,REF\u002A\u002A,1*%
%TO.N,Net-(C1-Pad2)*%
X46000000Y-49000000D03*
%TD*%
%TO.P,REF\u002A\u002A,1*%
%TO.N,Net-(C1-Pad2)*%
X56000000Y-34000000D03*
%TD*%
%TO.P,REF\u002A\u002A,1*%
%TO.N,Net-(C2-Pad5)*%
X47000000Y-41000000D03*
%TD*%
D12*
%TO.P,C1,1,GND*%
%TO.N,GND*%
X31595000Y-77620000D03*
D13*
X41755000Y-77620000D03*
%TO.P,C1,2,5V*%
%TO.N,Net-(C1-Pad2)*%
X41755000Y-75080000D03*
D12*
X31595000Y-75080000D03*
%TO.P,C1,3,SCK*%
%TO.N,Net-(C1-Pad3)*%
X31595000Y-72540000D03*
D14*
X41755000Y-72540000D03*
D13*
%TO.P,C1,4,MOSI*%
%TO.N,Net-(C1-Pad4)*%
X41755000Y-70000000D03*
D12*
X31595000Y-70000000D03*
D13*
%TO.P,C1,5,RES*%
%TO.N,Net-(C1-Pad5)*%
X41755000Y-67460000D03*
D12*
X31595000Y-67460000D03*
D13*
%TO.P,C1,6,DC*%
%TO.N,Net-(C1-Pad6)*%
X41755000Y-64920000D03*
D12*
X31595000Y-64920000D03*
D13*
%TO.P,C1,7,BL*%
%TO.N,Net-(C1-Pad7)*%
X41755000Y-62380000D03*
D12*
X31595000Y-62380000D03*
%TD*%
D11*
%TO.P,REF\u002A\u002A,1*%
%TO.N,Net-(C1-Pad3)*%
X49000000Y-72000000D03*
%TD*%
%TO.P,REF\u002A\u002A,1*%
%TO.N,Net-(C2-Pad5)*%
X57000000Y-52000000D03*
%TD*%
D12*
%TO.P,C2,1,GND*%
%TO.N,GND*%
X31595000Y-51620000D03*
D13*
X41755000Y-51620000D03*
%TO.P,C2,2,5V*%
%TO.N,Net-(C1-Pad2)*%
X41755000Y-49080000D03*
D12*
X31595000Y-49080000D03*
D13*
%TO.P,C2,3,SCK*%
%TO.N,Net-(C1-Pad3)*%
X41755000Y-46540000D03*
D12*
X31595000Y-46540000D03*
%TO.P,C2,4,MOSI*%
%TO.N,Net-(C1-Pad4)*%
X31595000Y-44000000D03*
D13*
X41755000Y-44000000D03*
D12*
%TO.P,C2,5,RES*%
%TO.N,Net-(C2-Pad5)*%
X31595000Y-41460000D03*
D13*
X41755000Y-41460000D03*
%TO.P,C2,6,DC*%
%TO.N,Net-(C1-Pad6)*%
X41755000Y-38920000D03*
D12*
X31595000Y-38920000D03*
D13*
%TO.P,C2,7,BL*%
%TO.N,Net-(C2-Pad7)*%
X41755000Y-36380000D03*
D12*
X31595000Y-36380000D03*
%TD*%
D11*
%TO.P,J1,1,3V3*%
%TO.N,unconnected-(J1-Pad1)*%
X62745000Y-31975000D03*
D12*
%TO.P,J1,2,5V*%
%TO.N,unconnected-(J1-Pad2)*%
X60205000Y-31975000D03*
%TO.P,J1,3,SDA/GPIO2*%
%TO.N,unconnected-(J1-Pad3)*%
X62745000Y-34515000D03*
%TO.P,J1,4,5V*%
%TO.N,Net-(C1-Pad2)*%
X60205000Y-34515000D03*
%TO.P,J1,5,SCL/GPIO3*%
%TO.N,unconnected-(J1-Pad5)*%
X62745000Y-37055000D03*
%TO.P,J1,6,GND*%
%TO.N,GND*%
X60205000Y-37055000D03*
%TO.P,J1,7,GCLK0/GPIO4*%
%TO.N,unconnected-(J1-Pad7)*%
X62745000Y-39595000D03*
%TO.P,J1,8,GPIO14/TXD*%
%TO.N,unconnected-(J1-Pad8)*%
X60205000Y-39595000D03*
%TO.P,J1,9,GND*%
%TO.N,GND*%
X62745000Y-42135000D03*
%TO.P,J1,10,GPIO15/RXD*%
%TO.N,unconnected-(J1-Pad10)*%
X60205000Y-42135000D03*
%TO.P,J1,11,GPIO17*%
%TO.N,unconnected-(J1-Pad11)*%
X62745000Y-44675000D03*
%TO.P,J1,12,GPIO18/PWM0*%
%TO.N,unconnected-(J1-Pad12)*%
X60205000Y-44675000D03*
%TO.P,J1,13,GPIO27*%
%TO.N,unconnected-(J1-Pad13)*%
X62745000Y-47215000D03*
%TO.P,J1,14,GND*%
%TO.N,GND*%
X60205000Y-47215000D03*
%TO.P,J1,15,GPIO22*%
%TO.N,unconnected-(J1-Pad15)*%
X62745000Y-49755000D03*
%TO.P,J1,16,GPIO23*%
%TO.N,unconnected-(J1-Pad16)*%
X60205000Y-49755000D03*
%TO.P,J1,17,3V3*%
%TO.N,unconnected-(J1-Pad17)*%
X62745000Y-52295000D03*
%TO.P,J1,18,GPIO24*%
%TO.N,Net-(C2-Pad5)*%
X60205000Y-52295000D03*
%TO.P,J1,19,MOSI0/GPIO10*%
%TO.N,Net-(C1-Pad4)*%
X62745000Y-54835000D03*
%TO.P,J1,20,GND*%
%TO.N,GND*%
X60205000Y-54835000D03*
%TO.P,J1,21,MISO0/GPIO9*%
%TO.N,Net-(C1-Pad6)*%
X62745000Y-57375000D03*
%TO.P,J1,22,GPIO25*%
%TO.N,Net-(C1-Pad5)*%
X60205000Y-57375000D03*
%TO.P,J1,23,SCLK0/GPIO11*%
%TO.N,Net-(C1-Pad3)*%
X62745000Y-59915000D03*
%TO.P,J1,24,~{CE0}/GPIO8*%
%TO.N,Net-(C2-Pad7)*%
X60205000Y-59915000D03*
%TO.P,J1,25,GND*%
%TO.N,GND*%
X62745000Y-62455000D03*
%TO.P,J1,26,~{CE1}/GPIO7*%
%TO.N,Net-(C1-Pad7)*%
X60205000Y-62455000D03*
%TO.P,J1,27,ID_SD/GPIO0*%
%TO.N,unconnected-(J1-Pad27)*%
X62745000Y-64995000D03*
%TO.P,J1,28,ID_SC/GPIO1*%
%TO.N,unconnected-(J1-Pad28)*%
X60205000Y-64995000D03*
%TO.P,J1,29,GCLK1/GPIO5*%
%TO.N,unconnected-(J1-Pad29)*%
X62745000Y-67535000D03*
%TO.P,J1,30,GND*%
%TO.N,GND*%
X60205000Y-67535000D03*
%TO.P,J1,31,GCLK2/GPIO6*%
%TO.N,unconnected-(J1-Pad31)*%
X62745000Y-70075000D03*
%TO.P,J1,32,PWM0/GPIO12*%
%TO.N,unconnected-(J1-Pad32)*%
X60205000Y-70075000D03*
%TO.P,J1,33,PWM1/GPIO13*%
%TO.N,unconnected-(J1-Pad33)*%
X62745000Y-72615000D03*
%TO.P,J1,34,GND*%
%TO.N,GND*%
X60205000Y-72615000D03*
%TO.P,J1,35,GPIO19/MISO1*%
%TO.N,unconnected-(J1-Pad35)*%
X62745000Y-75155000D03*
%TO.P,J1,36,GPIO16*%
%TO.N,unconnected-(J1-Pad36)*%
X60205000Y-75155000D03*
%TO.P,J1,37,GPIO26*%
%TO.N,unconnected-(J1-Pad37)*%
X62745000Y-77695000D03*
%TO.P,J1,38,GPIO20/MOSI1*%
%TO.N,unconnected-(J1-Pad38)*%
X60205000Y-77695000D03*
%TO.P,J1,39,GND*%
%TO.N,GND*%
X62745000Y-80235000D03*
%TO.P,J1,40,GPIO21/SCLK1*%
%TO.N,unconnected-(J1-Pad40)*%
X60205000Y-80235000D03*
%TD*%
D11*
%TO.P,REF\u002A\u002A,1*%
%TO.N,Net-(C1-Pad3)*%
X66000000Y-60000000D03*
%TD*%
%TO.P,REF\u002A\u002A,1*%
%TO.N,Net-(C1-Pad5)*%
X57000000Y-57000000D03*
%TD*%
D15*
%TO.N,GND*%
X32000000Y-54000000D03*
%TD*%
D16*
%TO.N,Net-(C1-Pad6)*%
X31100365Y-65414635D02*
X30160000Y-66355000D01*
X62959209Y-82000000D02*
X67679209Y-77280000D01*
X30160000Y-66355000D02*
X30160000Y-78310000D01*
X65974022Y-57375000D02*
X62745000Y-57375000D01*
X30160000Y-78310000D02*
X33850000Y-82000000D01*
X33850000Y-82000000D02*
X62959209Y-82000000D01*
X67720000Y-77280000D02*
X67720000Y-59120978D01*
X67679209Y-77280000D02*
X67720000Y-77280000D01*
X67720000Y-59120978D02*
X65974022Y-57375000D01*
%TO.N,Net-(C1-Pad4)*%
X30000000Y-36000000D02*
X30000000Y-42405000D01*
X30000000Y-42405000D02*
X31029654Y-43434654D01*
X62745000Y-54835000D02*
X64144511Y-53435489D01*
X64144511Y-30575489D02*
X63569022Y-30000000D01*
X36000000Y-30000000D02*
X30000000Y-36000000D01*
X64144511Y-53435489D02*
X64144511Y-30575489D01*
X63569022Y-30000000D02*
X36000000Y-30000000D01*
%TO.N,GND*%
X55694635Y-77125365D02*
X42249635Y-77125365D01*
X60205000Y-72615000D02*
X55694635Y-77125365D01*
%TO.N,Net-(C1-Pad2)*%
X56515000Y-34515000D02*
X56000000Y-34000000D01*
X46000000Y-49000000D02*
X42034520Y-49000000D01*
X60205000Y-34515000D02*
X56515000Y-34515000D01*
X42034520Y-49000000D02*
X41954520Y-49080000D01*
%TO.N,Net-(C1-Pad3)*%
X49000000Y-72000000D02*
X42295000Y-72000000D01*
X62745000Y-59915000D02*
X65915000Y-59915000D01*
X42295000Y-72000000D02*
X42249635Y-72045365D01*
X65915000Y-59915000D02*
X66000000Y-60000000D01*
%TO.N,Net-(C1-Pad5)*%
X49000000Y-67000000D02*
X48540000Y-67460000D01*
X57375000Y-57375000D02*
X57000000Y-57000000D01*
X48540000Y-67460000D02*
X41954520Y-67460000D01*
X60205000Y-57375000D02*
X57375000Y-57375000D01*
%TO.N,Net-(C1-Pad7)*%
X60205000Y-62455000D02*
X42819270Y-62455000D01*
X42819270Y-62455000D02*
X42249635Y-61885365D01*
%TO.N,Net-(C2-Pad5)*%
X57295000Y-52295000D02*
X57000000Y-52000000D01*
X47000000Y-41000000D02*
X42414520Y-41000000D01*
X60205000Y-52295000D02*
X57295000Y-52295000D01*
X42414520Y-41000000D02*
X41954520Y-41460000D01*
%TO.N,Net-(C2-Pad7)*%
X52000000Y-56000000D02*
X52000000Y-38000000D01*
X55915000Y-59915000D02*
X52000000Y-56000000D01*
X44364270Y-38000000D02*
X42249635Y-35885365D01*
X60205000Y-59915000D02*
X55915000Y-59915000D01*
X52000000Y-38000000D02*
X44364270Y-38000000D01*
%TD*%
%TA.AperFunction,Conductor*%
%TO.N,GND*%
G36*
X35136878Y-29020002D02*
G01*
X35183371Y-29073658D01*
X35193475Y-29143932D01*
X35163981Y-29208512D01*
X35157852Y-29215095D01*
X29216921Y-35156027D01*
X29210903Y-35161664D01*
X29161881Y-35204655D01*
X29106720Y-35274627D01*
X29104702Y-35277118D01*
X29051479Y-35341110D01*
X29051472Y-35341120D01*
X29047781Y-35345558D01*
X29044958Y-35350599D01*
X29043156Y-35353221D01*
X29036271Y-35363525D01*
X29034552Y-35366171D01*
X29030976Y-35370708D01*
X29028287Y-35375819D01*
X29028285Y-35375822D01*
X28989535Y-35449473D01*
X28987962Y-35452371D01*
X28969619Y-35485126D01*
X28944463Y-35530045D01*
X28942606Y-35535517D01*
X28941319Y-35538407D01*
X28936412Y-35549829D01*
X28935214Y-35552722D01*
X28932523Y-35557836D01*
X28916517Y-35609383D01*
X28906130Y-35642833D01*
X28905112Y-35645967D01*
X28879506Y-35721403D01*
X28876496Y-35730271D01*
X28875668Y-35735983D01*
X28874965Y-35738910D01*
X28872164Y-35751286D01*
X28871532Y-35754258D01*
X28869820Y-35759773D01*
X28865291Y-35798041D01*
X28859356Y-35848183D01*
X28858930Y-35851414D01*
X28846154Y-35939530D01*
X28848674Y-36003670D01*
X28849403Y-36022216D01*
X28849500Y-36027163D01*
X28849500Y-42361963D01*
X28849230Y-42370203D01*
X28844967Y-42435246D01*
X28851970Y-42494412D01*
X28855434Y-42523675D01*
X28855778Y-42526957D01*
X28862970Y-42605227D01*
X28863919Y-42615560D01*
X28865488Y-42621122D01*
X28866051Y-42624161D01*
X28868501Y-42636481D01*
X28869142Y-42639494D01*
X28869820Y-42645227D01*
X28871533Y-42650744D01*
X28871534Y-42650748D01*
X28896205Y-42730201D01*
X28897142Y-42733364D01*
X28919744Y-42813507D01*
X28919749Y-42813521D01*
X28921314Y-42819069D01*
X28923866Y-42824244D01*
X28924975Y-42827133D01*
X28929611Y-42838752D01*
X28930810Y-42841646D01*
X28932523Y-42847163D01*
X28972353Y-42922866D01*
X28973963Y-42925927D01*
X28975461Y-42928867D01*
X29012277Y-43003524D01*
X29012280Y-43003529D01*
X29014835Y-43008710D01*
X29018293Y-43013341D01*
X29019944Y-43016035D01*
X29026621Y-43026618D01*
X29028292Y-43029191D01*
X29030976Y-43034292D01*
X29068528Y-43081926D01*
X29086087Y-43104200D01*
X29088083Y-43106801D01*
X29141349Y-43178133D01*
X29162309Y-43197508D01*
X29202121Y-43234310D01*
X29205687Y-43237740D01*
X29805419Y-43837472D01*
X29839445Y-43899784D01*
X29841690Y-43939189D01*
X29840194Y-43954049D01*
X29852677Y-44213930D01*
X29903435Y-44469112D01*
X29991355Y-44713989D01*
X30114504Y-44943180D01*
X30117299Y-44946923D01*
X30117301Y-44946926D01*
X30267385Y-45147913D01*
X30267390Y-45147919D01*
X30270177Y-45151651D01*
X30273492Y-45154937D01*
X30299224Y-45180446D01*
X30333521Y-45242610D01*
X30328764Y-45313447D01*
X30307393Y-45350496D01*
X30165895Y-45520629D01*
X30030920Y-45743061D01*
X30029111Y-45747375D01*
X30029110Y-45747377D01*
X29938527Y-45963394D01*
X29930305Y-45983001D01*
X29929154Y-45987533D01*
X29929153Y-45987536D01*
X29924328Y-46006535D01*
X29866261Y-46235177D01*
X29840194Y-46494049D01*
X29852677Y-46753930D01*
X29903435Y-47009112D01*
X29991355Y-47253989D01*
X30114504Y-47483180D01*
X30117299Y-47486923D01*
X30117301Y-47486926D01*
X30267385Y-47687913D01*
X30267390Y-47687919D01*
X30270177Y-47691651D01*
X30273492Y-47694937D01*
X30299224Y-47720446D01*
X30333521Y-47782610D01*
X30328764Y-47853447D01*
X30307393Y-47890496D01*
X30165895Y-48060629D01*
X30030920Y-48283061D01*
X30029111Y-48287375D01*
X30029110Y-48287377D01*
X29985745Y-48390792D01*
X29930305Y-48523001D01*
X29929154Y-48527533D01*
X29929153Y-48527536D01*
X29924611Y-48545421D01*
X29866261Y-48775177D01*
X29840194Y-49034049D01*
X29852677Y-49293930D01*
X29903435Y-49549112D01*
X29991355Y-49793989D01*
X30114504Y-50023180D01*
X30117299Y-50026923D01*
X30117301Y-50026926D01*
X30267385Y-50227913D01*
X30267390Y-50227919D01*
X30270177Y-50231651D01*
X30273486Y-50234931D01*
X30273491Y-50234937D01*
X30451637Y-50411535D01*
X30454954Y-50414823D01*
X30458716Y-50417581D01*
X30458719Y-50417584D01*
X30582190Y-50508116D01*
X30625298Y-50564527D01*
X30631065Y-50635289D01*
X30598779Y-50696779D01*
X30539591Y-50758717D01*
X30533104Y-50766727D01*
X30413098Y-50942649D01*
X30408000Y-50951623D01*
X30318338Y-51144783D01*
X30314775Y-51154470D01*
X30259389Y-51354183D01*
X30260912Y-51362607D01*
X30273292Y-51366000D01*
X30321002Y-51366000D01*
X30389123Y-51386002D01*
X30435616Y-51439658D01*
X30445350Y-51499263D01*
X30446400Y-51499277D01*
X30443633Y-51710615D01*
X30444612Y-51716310D01*
X30446391Y-51726665D01*
X30438212Y-51797189D01*
X30393204Y-51852096D01*
X30322210Y-51874000D01*
X30278225Y-51874000D01*
X30264694Y-51877973D01*
X30263257Y-51887966D01*
X30293565Y-52022446D01*
X30296645Y-52032275D01*
X30376770Y-52229603D01*
X30381413Y-52238794D01*
X30492694Y-52420388D01*
X30498777Y-52428699D01*
X30638213Y-52589667D01*
X30645580Y-52596883D01*
X30809434Y-52732916D01*
X30817881Y-52738831D01*
X31001756Y-52846279D01*
X31011042Y-52850729D01*
X31210001Y-52926703D01*
X31219899Y-52929579D01*
X31323250Y-52950606D01*
X31337299Y-52949410D01*
X31341000Y-52939065D01*
X31341000Y-52889839D01*
X31361002Y-52821718D01*
X31414658Y-52775225D01*
X31481809Y-52764712D01*
X31526485Y-52770000D01*
X31723000Y-52770000D01*
X31791121Y-52790002D01*
X31837614Y-52843658D01*
X31849000Y-52896000D01*
X31849000Y-52938517D01*
X31853064Y-52952359D01*
X31866478Y-52954393D01*
X31873184Y-52953534D01*
X31883262Y-52951392D01*
X32087255Y-52890191D01*
X32096842Y-52886433D01*
X32288094Y-52792739D01*
X32296429Y-52787771D01*
X32360946Y-52770000D01*
X40175799Y-52770000D01*
X40233002Y-52783733D01*
X40305941Y-52820898D01*
X40318187Y-52825599D01*
X40485533Y-52870439D01*
X40496860Y-52872386D01*
X40565739Y-52877807D01*
X40570665Y-52878000D01*
X41482885Y-52878000D01*
X41498124Y-52873525D01*
X41499329Y-52872135D01*
X41499963Y-52869219D01*
X41533987Y-52806906D01*
X41596299Y-52772880D01*
X41623084Y-52770000D01*
X41808621Y-52770000D01*
X41849197Y-52766272D01*
X41874815Y-52763918D01*
X41944481Y-52777603D01*
X41995688Y-52826780D01*
X42007240Y-52853891D01*
X42013475Y-52875124D01*
X42014865Y-52876329D01*
X42022548Y-52878000D01*
X42939335Y-52878000D01*
X42944261Y-52877807D01*
X43013140Y-52872386D01*
X43024467Y-52870439D01*
X43191813Y-52825599D01*
X43204059Y-52820898D01*
X43357682Y-52742622D01*
X43368696Y-52735470D01*
X43502689Y-52626966D01*
X43511966Y-52617689D01*
X43620470Y-52483696D01*
X43627622Y-52472682D01*
X43705898Y-52319059D01*
X43710599Y-52306813D01*
X43755439Y-52139467D01*
X43757386Y-52128140D01*
X43762807Y-52059261D01*
X43763000Y-52054335D01*
X43763000Y-51892115D01*
X43758525Y-51876876D01*
X43757135Y-51875671D01*
X43749452Y-51874000D01*
X43028998Y-51874000D01*
X42960877Y-51853998D01*
X42914384Y-51800342D01*
X42904650Y-51740737D01*
X42903600Y-51740723D01*
X42906291Y-51535167D01*
X42906367Y-51529385D01*
X42903609Y-51513335D01*
X42911788Y-51442811D01*
X42956796Y-51387904D01*
X43027790Y-51366000D01*
X43744885Y-51366000D01*
X43760124Y-51361525D01*
X43761329Y-51360135D01*
X43763000Y-51352452D01*
X43763000Y-51185666D01*
X43762807Y-51180739D01*
X43757386Y-51111860D01*
X43755439Y-51100533D01*
X43710599Y-50933187D01*
X43705898Y-50920941D01*
X43627622Y-50767318D01*
X43620470Y-50756304D01*
X43569770Y-50693694D01*
X43542445Y-50628166D01*
X43554885Y-50558268D01*
X43595781Y-50510935D01*
X43696868Y-50440678D01*
X43696871Y-50440676D01*
X43701476Y-50437475D01*
X43862475Y-50276476D01*
X43912436Y-50204590D01*
X43967739Y-50160068D01*
X44015902Y-50150500D01*
X44215244Y-50150500D01*
X44283365Y-50170502D01*
X44327511Y-50219297D01*
X44356645Y-50276476D01*
X44390617Y-50343149D01*
X44394770Y-50348278D01*
X44394773Y-50348282D01*
X44492520Y-50468989D01*
X44509743Y-50490257D01*
X44514874Y-50494412D01*
X44651718Y-50605227D01*
X44651722Y-50605230D01*
X44656851Y-50609383D01*
X44662729Y-50612378D01*
X44662732Y-50612380D01*
X44707694Y-50635289D01*
X44825512Y-50695320D01*
X44831885Y-50697028D01*
X44831886Y-50697028D01*
X45002777Y-50742818D01*
X45002783Y-50742819D01*
X45008355Y-50744312D01*
X45014111Y-50744765D01*
X45084523Y-50750307D01*
X45084530Y-50750307D01*
X45086979Y-50750500D01*
X45999630Y-50750500D01*
X46913020Y-50750499D01*
X46961943Y-50746649D01*
X46985891Y-50744765D01*
X46985893Y-50744765D01*
X46991645Y-50744312D01*
X47106592Y-50713512D01*
X47168114Y-50697028D01*
X47168115Y-50697028D01*
X47174488Y-50695320D01*
X47292306Y-50635289D01*
X47337268Y-50612380D01*
X47337271Y-50612378D01*
X47343149Y-50609383D01*
X47348278Y-50605230D01*
X47348282Y-50605227D01*
X47485126Y-50494412D01*
X47490257Y-50490257D01*
X47507480Y-50468989D01*
X47605227Y-50348282D01*
X47605230Y-50348278D01*
X47609383Y-50343149D01*
X47612381Y-50337267D01*
X47657099Y-50249501D01*
X47695320Y-50174488D01*
X47699184Y-50160068D01*
X47742818Y-49997223D01*
X47742819Y-49997217D01*
X47744312Y-49991645D01*
X47746100Y-49968930D01*
X47750307Y-49915477D01*
X47750307Y-49915470D01*
X47750500Y-49913021D01*
X47750499Y-48086980D01*
X47746641Y-48037952D01*
X47744765Y-48014109D01*
X47744765Y-48014107D01*
X47744312Y-48008355D01*
X47702805Y-47853447D01*
X47697028Y-47831886D01*
X47697028Y-47831885D01*
X47695320Y-47825512D01*
X47628789Y-47694937D01*
X47612380Y-47662732D01*
X47612378Y-47662729D01*
X47609383Y-47656851D01*
X47605230Y-47651722D01*
X47605227Y-47651718D01*
X47494412Y-47514874D01*
X47490257Y-47509743D01*
X47482573Y-47503521D01*
X47348282Y-47394773D01*
X47348278Y-47394770D01*
X47343149Y-47390617D01*
X47337271Y-47387622D01*
X47337268Y-47387620D01*
X47248698Y-47342492D01*
X47174488Y-47304680D01*
X47168114Y-47302972D01*
X46997223Y-47257182D01*
X46997217Y-47257181D01*
X46991645Y-47255688D01*
X46970058Y-47253989D01*
X46915477Y-47249693D01*
X46915470Y-47249693D01*
X46913021Y-47249500D01*
X46000370Y-47249500D01*
X45086980Y-47249501D01*
X45038057Y-47253351D01*
X45014109Y-47255235D01*
X45014107Y-47255235D01*
X45008355Y-47255688D01*
X44825512Y-47304680D01*
X44751302Y-47342492D01*
X44662732Y-47387620D01*
X44662729Y-47387622D01*
X44656851Y-47390617D01*
X44651722Y-47394770D01*
X44651718Y-47394773D01*
X44517427Y-47503521D01*
X44509743Y-47509743D01*
X44505588Y-47514874D01*
X44394773Y-47651718D01*
X44394770Y-47651722D01*
X44390617Y-47656851D01*
X44387620Y-47662733D01*
X44327511Y-47780703D01*
X44278763Y-47832318D01*
X44215244Y-47849500D01*
X44024937Y-47849500D01*
X43956816Y-47829498D01*
X43910323Y-47775842D01*
X43900219Y-47705568D01*
X43921472Y-47651590D01*
X43989217Y-47554118D01*
X43989218Y-47554116D01*
X43992418Y-47549512D01*
X44087199Y-47342492D01*
X44143823Y-47121959D01*
X44152644Y-47013507D01*
X44155293Y-46980943D01*
X44155293Y-46980931D01*
X44155500Y-46978392D01*
X44155500Y-46101608D01*
X44154976Y-46095155D01*
X44144258Y-45963394D01*
X44143823Y-45958041D01*
X44087199Y-45737508D01*
X43992418Y-45530488D01*
X43862475Y-45343524D01*
X43864224Y-45342308D01*
X43839579Y-45285755D01*
X43850906Y-45215668D01*
X43863004Y-45196844D01*
X43862475Y-45196476D01*
X43989217Y-45014118D01*
X43989218Y-45014116D01*
X43992418Y-45009512D01*
X44087199Y-44802492D01*
X44143823Y-44581959D01*
X44152644Y-44473507D01*
X44155293Y-44440943D01*
X44155293Y-44440931D01*
X44155500Y-44438392D01*
X44155500Y-43561608D01*
X44143823Y-43418041D01*
X44087199Y-43197508D01*
X44080122Y-43182049D01*
X44044479Y-43104200D01*
X43992418Y-42990488D01*
X43949591Y-42928867D01*
X43862475Y-42803524D01*
X43864224Y-42802308D01*
X43839579Y-42745755D01*
X43850906Y-42675668D01*
X43863004Y-42656844D01*
X43862475Y-42656476D01*
X43989217Y-42474118D01*
X43989218Y-42474116D01*
X43992418Y-42469512D01*
X44087199Y-42262492D01*
X44091648Y-42245164D01*
X44127963Y-42184158D01*
X44191496Y-42152470D01*
X44213689Y-42150500D01*
X45215244Y-42150500D01*
X45283365Y-42170502D01*
X45327511Y-42219297D01*
X45390617Y-42343149D01*
X45394770Y-42348278D01*
X45394773Y-42348282D01*
X45465196Y-42435246D01*
X45509743Y-42490257D01*
X45514874Y-42494412D01*
X45651718Y-42605227D01*
X45651722Y-42605230D01*
X45656851Y-42609383D01*
X45662729Y-42612378D01*
X45662732Y-42612380D01*
X45727199Y-42645227D01*
X45825512Y-42695320D01*
X45831885Y-42697028D01*
X45831886Y-42697028D01*
X46002777Y-42742818D01*
X46002783Y-42742819D01*
X46008355Y-42744312D01*
X46014111Y-42744765D01*
X46084523Y-42750307D01*
X46084530Y-42750307D01*
X46086979Y-42750500D01*
X46999630Y-42750500D01*
X47913020Y-42750499D01*
X47961943Y-42746649D01*
X47985891Y-42744765D01*
X47985893Y-42744765D01*
X47991645Y-42744312D01*
X48174488Y-42695320D01*
X48272801Y-42645227D01*
X48337268Y-42612380D01*
X48337271Y-42612378D01*
X48343149Y-42609383D01*
X48348278Y-42605230D01*
X48348282Y-42605227D01*
X48485126Y-42494412D01*
X48490257Y-42490257D01*
X48534804Y-42435246D01*
X48605227Y-42348282D01*
X48605230Y-42348278D01*
X48609383Y-42343149D01*
X48612381Y-42337267D01*
X48659309Y-42245164D01*
X48695320Y-42174488D01*
X48701220Y-42152470D01*
X48742818Y-41997223D01*
X48742819Y-41997217D01*
X48744312Y-41991645D01*
X48750500Y-41913021D01*
X48750499Y-40086980D01*
X48744312Y-40008355D01*
X48713512Y-39893408D01*
X48697028Y-39831886D01*
X48697028Y-39831885D01*
X48695320Y-39825512D01*
X48634206Y-39705568D01*
X48612380Y-39662732D01*
X48612378Y-39662729D01*
X48609383Y-39656851D01*
X48605230Y-39651722D01*
X48605227Y-39651718D01*
X48494412Y-39514874D01*
X48490257Y-39509743D01*
X48474034Y-39496606D01*
X48348282Y-39394773D01*
X48348278Y-39394770D01*
X48343149Y-39390617D01*
X48337269Y-39387621D01*
X48331724Y-39384020D01*
X48332777Y-39382399D01*
X48287904Y-39340021D01*
X48270837Y-39271106D01*
X48293736Y-39203904D01*
X48349333Y-39159751D01*
X48396721Y-39150500D01*
X50723500Y-39150500D01*
X50791621Y-39170502D01*
X50838114Y-39224158D01*
X50849500Y-39276500D01*
X50849500Y-55956963D01*
X50849230Y-55965203D01*
X50844967Y-56030246D01*
X50853781Y-56104711D01*
X50855434Y-56118675D01*
X50855778Y-56121957D01*
X50860399Y-56172246D01*
X50863919Y-56210560D01*
X50865488Y-56216122D01*
X50866051Y-56219161D01*
X50868501Y-56231481D01*
X50869142Y-56234494D01*
X50869820Y-56240227D01*
X50871533Y-56245744D01*
X50871534Y-56245748D01*
X50896205Y-56325201D01*
X50897142Y-56328364D01*
X50919744Y-56408507D01*
X50919749Y-56408521D01*
X50921314Y-56414069D01*
X50923866Y-56419244D01*
X50924975Y-56422133D01*
X50929611Y-56433752D01*
X50930810Y-56436646D01*
X50932523Y-56442163D01*
X50935213Y-56447275D01*
X50935213Y-56447276D01*
X50973963Y-56520927D01*
X50975461Y-56523867D01*
X51012277Y-56598524D01*
X51012280Y-56598529D01*
X51014835Y-56603710D01*
X51018293Y-56608341D01*
X51019944Y-56611035D01*
X51026621Y-56621618D01*
X51028292Y-56624191D01*
X51030976Y-56629292D01*
X51034548Y-56633823D01*
X51086087Y-56699200D01*
X51088083Y-56701801D01*
X51141349Y-56773133D01*
X51202121Y-56829310D01*
X51205687Y-56832740D01*
X55071034Y-60698087D01*
X55076671Y-60704105D01*
X55119655Y-60753119D01*
X55124188Y-60756693D01*
X55124197Y-60756701D01*
X55189565Y-60808232D01*
X55192129Y-60810308D01*
X55256111Y-60863521D01*
X55256115Y-60863524D01*
X55260558Y-60867219D01*
X55265600Y-60870043D01*
X55268221Y-60871844D01*
X55278525Y-60878729D01*
X55281171Y-60880448D01*
X55285708Y-60884024D01*
X55290819Y-60886713D01*
X55290822Y-60886715D01*
X55364473Y-60925465D01*
X55367371Y-60927038D01*
X55436692Y-60965859D01*
X55445045Y-60970537D01*
X55450517Y-60972394D01*
X55453407Y-60973681D01*
X55464829Y-60978588D01*
X55467722Y-60979786D01*
X55472836Y-60982477D01*
X55498539Y-60990458D01*
X55557833Y-61008870D01*
X55560967Y-61009888D01*
X55615095Y-61028261D01*
X55645271Y-61038504D01*
X55650988Y-61039333D01*
X55654016Y-61040060D01*
X55666270Y-61042833D01*
X55669262Y-61043469D01*
X55674773Y-61045180D01*
X55680501Y-61045858D01*
X55680506Y-61045859D01*
X55743997Y-61053373D01*
X55809295Y-61081243D01*
X55849159Y-61139992D01*
X55850933Y-61210966D01*
X55814054Y-61271633D01*
X55750231Y-61302730D01*
X55729188Y-61304500D01*
X44012427Y-61304500D01*
X43944306Y-61284498D01*
X43908962Y-61250410D01*
X43890782Y-61224253D01*
X43862475Y-61183524D01*
X43701476Y-61022525D01*
X43514512Y-60892582D01*
X43332508Y-60809254D01*
X43312597Y-60800138D01*
X43312595Y-60800137D01*
X43307492Y-60797801D01*
X43086959Y-60741177D01*
X43020333Y-60735758D01*
X42945943Y-60729707D01*
X42945931Y-60729707D01*
X42943392Y-60729500D01*
X40566608Y-60729500D01*
X40564069Y-60729707D01*
X40564057Y-60729707D01*
X40489667Y-60735758D01*
X40423041Y-60741177D01*
X40202508Y-60797801D01*
X40197405Y-60800137D01*
X40197403Y-60800138D01*
X40177492Y-60809254D01*
X39995488Y-60892582D01*
X39808524Y-61022525D01*
X39647525Y-61183524D01*
X39646216Y-61185407D01*
X39588046Y-61224253D01*
X39550427Y-61230000D01*
X32977124Y-61230000D01*
X32909003Y-61209998D01*
X32889606Y-61193657D01*
X32889223Y-61194064D01*
X32706871Y-61022525D01*
X32699714Y-61015792D01*
X32547748Y-60910369D01*
X32489779Y-60870154D01*
X32489776Y-60870152D01*
X32485937Y-60867489D01*
X32481747Y-60865423D01*
X32481744Y-60865421D01*
X32256775Y-60754479D01*
X32256772Y-60754478D01*
X32252587Y-60752414D01*
X32221657Y-60742513D01*
X32009237Y-60674517D01*
X32009239Y-60674517D01*
X32004792Y-60673094D01*
X31864569Y-60650257D01*
X31752606Y-60632023D01*
X31752605Y-60632023D01*
X31747994Y-60631272D01*
X31617914Y-60629569D01*
X31492512Y-60627927D01*
X31492509Y-60627927D01*
X31487835Y-60627866D01*
X31230030Y-60662952D01*
X30980243Y-60735758D01*
X30975990Y-60737718D01*
X30975989Y-60737719D01*
X30942584Y-60753119D01*
X30743961Y-60844686D01*
X30740056Y-60847246D01*
X30740051Y-60847249D01*
X30530288Y-60984775D01*
X30530283Y-60984779D01*
X30526375Y-60987341D01*
X30449631Y-61055838D01*
X30356279Y-61139158D01*
X30332265Y-61160591D01*
X30165895Y-61360629D01*
X30030920Y-61583061D01*
X30029111Y-61587375D01*
X30029110Y-61587377D01*
X29933319Y-61815814D01*
X29930305Y-61823001D01*
X29866261Y-62075177D01*
X29840194Y-62334049D01*
X29852677Y-62593930D01*
X29903435Y-62849112D01*
X29991355Y-63093989D01*
X30114504Y-63323180D01*
X30117299Y-63326923D01*
X30117301Y-63326926D01*
X30267385Y-63527913D01*
X30267390Y-63527919D01*
X30270177Y-63531651D01*
X30273492Y-63534937D01*
X30299224Y-63560446D01*
X30333521Y-63622610D01*
X30328764Y-63693447D01*
X30307393Y-63730496D01*
X30165895Y-63900629D01*
X30030920Y-64123061D01*
X30029111Y-64127375D01*
X30029110Y-64127377D01*
X29938527Y-64343394D01*
X29930305Y-64363001D01*
X29929154Y-64367533D01*
X29929153Y-64367536D01*
X29910106Y-64442536D01*
X29866261Y-64615177D01*
X29840194Y-64874049D01*
X29840418Y-64878716D01*
X29840418Y-64878721D01*
X29845479Y-64984087D01*
X29828768Y-65053089D01*
X29808720Y-65079227D01*
X29376914Y-65511034D01*
X29370895Y-65516671D01*
X29321881Y-65559655D01*
X29266720Y-65629627D01*
X29264702Y-65632118D01*
X29211479Y-65696110D01*
X29211472Y-65696120D01*
X29207781Y-65700558D01*
X29204958Y-65705599D01*
X29203156Y-65708221D01*
X29196271Y-65718525D01*
X29194552Y-65721171D01*
X29190976Y-65725708D01*
X29188287Y-65730819D01*
X29188285Y-65730822D01*
X29149535Y-65804473D01*
X29147962Y-65807371D01*
X29141095Y-65819633D01*
X29104463Y-65885045D01*
X29102606Y-65890517D01*
X29101319Y-65893407D01*
X29096412Y-65904829D01*
X29095214Y-65907722D01*
X29092523Y-65912836D01*
X29083490Y-65941926D01*
X29066130Y-65997833D01*
X29065112Y-66000967D01*
X29049316Y-66047503D01*
X29036496Y-66085271D01*
X29035668Y-66090983D01*
X29034965Y-66093910D01*
X29032164Y-66106286D01*
X29031532Y-66109258D01*
X29029820Y-66114773D01*
X29019356Y-66203183D01*
X29018930Y-66206414D01*
X29006154Y-66294530D01*
X29008297Y-66349064D01*
X29009403Y-66377216D01*
X29009500Y-66382163D01*
X29009500Y-78266963D01*
X29009230Y-78275203D01*
X29004967Y-78340246D01*
X29013104Y-78408989D01*
X29015434Y-78428675D01*
X29015777Y-78431950D01*
X29023919Y-78520560D01*
X29025488Y-78526122D01*
X29026051Y-78529161D01*
X29028501Y-78541481D01*
X29029142Y-78544494D01*
X29029820Y-78550227D01*
X29031533Y-78555744D01*
X29031534Y-78555748D01*
X29056205Y-78635201D01*
X29057142Y-78638364D01*
X29079744Y-78718507D01*
X29079749Y-78718521D01*
X29081314Y-78724069D01*
X29083866Y-78729244D01*
X29084975Y-78732133D01*
X29089611Y-78743752D01*
X29090810Y-78746646D01*
X29092523Y-78752163D01*
X29095213Y-78757275D01*
X29095213Y-78757276D01*
X29133963Y-78830927D01*
X29135461Y-78833867D01*
X29172277Y-78908524D01*
X29172280Y-78908529D01*
X29174835Y-78913710D01*
X29178293Y-78918341D01*
X29179944Y-78921035D01*
X29186621Y-78931618D01*
X29188292Y-78934191D01*
X29190976Y-78939292D01*
X29199474Y-78950071D01*
X29246087Y-79009200D01*
X29248083Y-79011801D01*
X29301349Y-79083133D01*
X29338657Y-79117620D01*
X29362121Y-79139310D01*
X29365687Y-79142740D01*
X33006027Y-82783079D01*
X33011664Y-82789097D01*
X33054655Y-82838119D01*
X33124627Y-82893280D01*
X33127118Y-82895298D01*
X33191110Y-82948521D01*
X33191120Y-82948528D01*
X33195558Y-82952219D01*
X33200599Y-82955042D01*
X33203221Y-82956844D01*
X33213525Y-82963729D01*
X33216171Y-82965448D01*
X33220708Y-82969024D01*
X33225819Y-82971713D01*
X33225822Y-82971715D01*
X33299473Y-83010465D01*
X33302371Y-83012038D01*
X33371692Y-83050859D01*
X33380045Y-83055537D01*
X33385517Y-83057394D01*
X33388407Y-83058681D01*
X33399829Y-83063588D01*
X33402722Y-83064786D01*
X33407836Y-83067477D01*
X33461529Y-83084149D01*
X33492833Y-83093870D01*
X33495967Y-83094888D01*
X33550095Y-83113261D01*
X33580271Y-83123504D01*
X33585988Y-83124333D01*
X33589016Y-83125060D01*
X33601270Y-83127833D01*
X33604260Y-83128468D01*
X33609773Y-83130180D01*
X33664101Y-83136610D01*
X33698200Y-83140646D01*
X33701470Y-83141077D01*
X33734869Y-83145919D01*
X33789530Y-83153845D01*
X33872200Y-83150597D01*
X33877147Y-83150500D01*
X62916172Y-83150500D01*
X62924412Y-83150770D01*
X62989455Y-83155033D01*
X63077900Y-83144564D01*
X63081159Y-83144223D01*
X63100982Y-83142401D01*
X63164015Y-83136610D01*
X63164018Y-83136609D01*
X63169769Y-83136081D01*
X63175331Y-83134512D01*
X63178370Y-83133949D01*
X63190690Y-83131499D01*
X63193703Y-83130858D01*
X63199436Y-83130180D01*
X63204953Y-83128467D01*
X63204957Y-83128466D01*
X63284410Y-83103795D01*
X63287573Y-83102858D01*
X63367716Y-83080256D01*
X63367730Y-83080251D01*
X63373278Y-83078686D01*
X63378453Y-83076134D01*
X63381342Y-83075025D01*
X63392961Y-83070389D01*
X63395855Y-83069190D01*
X63401372Y-83067477D01*
X63414799Y-83060413D01*
X63480136Y-83026037D01*
X63483076Y-83024539D01*
X63557733Y-82987723D01*
X63557738Y-82987720D01*
X63562919Y-82985165D01*
X63567550Y-82981707D01*
X63570244Y-82980056D01*
X63580827Y-82973379D01*
X63583400Y-82971708D01*
X63588501Y-82969024D01*
X63658424Y-82913902D01*
X63661026Y-82911905D01*
X63686049Y-82893220D01*
X63732342Y-82858651D01*
X63788520Y-82797878D01*
X63791949Y-82794313D01*
X68308012Y-78278249D01*
X68324043Y-78265611D01*
X68323710Y-78265165D01*
X68354818Y-78241936D01*
X68365775Y-78234615D01*
X68399144Y-78214762D01*
X68440929Y-78178118D01*
X68448595Y-78171909D01*
X68478081Y-78149891D01*
X68488512Y-78142102D01*
X68488514Y-78142100D01*
X68493133Y-78138651D01*
X68497046Y-78134418D01*
X68497055Y-78134410D01*
X68519483Y-78110147D01*
X68528923Y-78100950D01*
X68558119Y-78075345D01*
X68592523Y-78031704D01*
X68598946Y-78024183D01*
X68632748Y-77987616D01*
X68636663Y-77983381D01*
X68657380Y-77950547D01*
X68664991Y-77939778D01*
X68685445Y-77913832D01*
X68689024Y-77909292D01*
X68714900Y-77860109D01*
X68719846Y-77851544D01*
X68746412Y-77809440D01*
X68749495Y-77804554D01*
X68763886Y-77768482D01*
X68769397Y-77756527D01*
X68787477Y-77722164D01*
X68803956Y-77669093D01*
X68807259Y-77659767D01*
X68825706Y-77613529D01*
X68827848Y-77608160D01*
X68835421Y-77570087D01*
X68838668Y-77557303D01*
X68848466Y-77525749D01*
X68848467Y-77525743D01*
X68850180Y-77520227D01*
X68856712Y-77465037D01*
X68858257Y-77455280D01*
X68869099Y-77400775D01*
X68869268Y-77387904D01*
X68869608Y-77361953D01*
X68869997Y-77355939D01*
X68869846Y-77355930D01*
X68870064Y-77352228D01*
X68870500Y-77348545D01*
X68870500Y-77294571D01*
X68870511Y-77292922D01*
X68871791Y-77195129D01*
X68871867Y-77189346D01*
X68870888Y-77183647D01*
X68870500Y-77173765D01*
X68870500Y-59164026D01*
X68870770Y-59155785D01*
X68874656Y-59096502D01*
X68874656Y-59096500D01*
X68875034Y-59090732D01*
X68864567Y-59002305D01*
X68864223Y-58999032D01*
X68856610Y-58916178D01*
X68856081Y-58910418D01*
X68854511Y-58904853D01*
X68853926Y-58901694D01*
X68851518Y-58889590D01*
X68850859Y-58886490D01*
X68850180Y-58880751D01*
X68823770Y-58795695D01*
X68822858Y-58792619D01*
X68798686Y-58706909D01*
X68796127Y-58701720D01*
X68794990Y-58698758D01*
X68790380Y-58687201D01*
X68789189Y-58684326D01*
X68787478Y-58678815D01*
X68775922Y-58656851D01*
X68746029Y-58600032D01*
X68744533Y-58597095D01*
X68707722Y-58522452D01*
X68707720Y-58522448D01*
X68705165Y-58517268D01*
X68701705Y-58512635D01*
X68700081Y-58509985D01*
X68693408Y-58499407D01*
X68691712Y-58496796D01*
X68689024Y-58491686D01*
X68633902Y-58421763D01*
X68631905Y-58419161D01*
X68582104Y-58352469D01*
X68582103Y-58352468D01*
X68578651Y-58347845D01*
X68517878Y-58291667D01*
X68514313Y-58288238D01*
X66817995Y-56591921D01*
X66812358Y-56585903D01*
X66773179Y-56541228D01*
X66769367Y-56536881D01*
X66699395Y-56481720D01*
X66696904Y-56479702D01*
X66632912Y-56426479D01*
X66632902Y-56426472D01*
X66628464Y-56422781D01*
X66623423Y-56419958D01*
X66620801Y-56418156D01*
X66610497Y-56411271D01*
X66607851Y-56409552D01*
X66603314Y-56405976D01*
X66598203Y-56403287D01*
X66598200Y-56403285D01*
X66524549Y-56364535D01*
X66521651Y-56362962D01*
X66449016Y-56322285D01*
X66443977Y-56319463D01*
X66438505Y-56317606D01*
X66435615Y-56316319D01*
X66424193Y-56311412D01*
X66421300Y-56310214D01*
X66416186Y-56307523D01*
X66362493Y-56290851D01*
X66331189Y-56281130D01*
X66328055Y-56280112D01*
X66249213Y-56253350D01*
X66249212Y-56253350D01*
X66243751Y-56251496D01*
X66238039Y-56250668D01*
X66235112Y-56249965D01*
X66222736Y-56247164D01*
X66219764Y-56246532D01*
X66214249Y-56244820D01*
X66125811Y-56234352D01*
X66122608Y-56233930D01*
X66056900Y-56224403D01*
X66040204Y-56221982D01*
X66040202Y-56221982D01*
X66034492Y-56221154D01*
X65951806Y-56224403D01*
X65946859Y-56224500D01*
X64132925Y-56224500D01*
X64064804Y-56204498D01*
X64018311Y-56150842D01*
X64008207Y-56080568D01*
X64038192Y-56015425D01*
X64146931Y-55891431D01*
X64165548Y-55862489D01*
X64285155Y-55676538D01*
X64287683Y-55672608D01*
X64394544Y-55435385D01*
X64431567Y-55304112D01*
X64463898Y-55189476D01*
X64463899Y-55189473D01*
X64465168Y-55184972D01*
X64478825Y-55077614D01*
X64497604Y-54930001D01*
X64497604Y-54929997D01*
X64498002Y-54926871D01*
X64500408Y-54835000D01*
X64495809Y-54773119D01*
X64510707Y-54703704D01*
X64532367Y-54674686D01*
X64927598Y-54279455D01*
X64933616Y-54273818D01*
X64982630Y-54230834D01*
X64986204Y-54226301D01*
X64986212Y-54226292D01*
X65037743Y-54160924D01*
X65039819Y-54158360D01*
X65093032Y-54094378D01*
X65093035Y-54094374D01*
X65096730Y-54089931D01*
X65099554Y-54084889D01*
X65101355Y-54082268D01*
X65108240Y-54071964D01*
X65109959Y-54069318D01*
X65113535Y-54064781D01*
X65116226Y-54059667D01*
X65154976Y-53986016D01*
X65156549Y-53983118D01*
X65197226Y-53910483D01*
X65200048Y-53905444D01*
X65201905Y-53899972D01*
X65203192Y-53897082D01*
X65208099Y-53885660D01*
X65209297Y-53882768D01*
X65211988Y-53877653D01*
X65238386Y-53792640D01*
X65239404Y-53789505D01*
X65252644Y-53750500D01*
X65268015Y-53705219D01*
X65268845Y-53699497D01*
X65269559Y-53696522D01*
X65272347Y-53684203D01*
X65272979Y-53681231D01*
X65274691Y-53675716D01*
X65285158Y-53587285D01*
X65285589Y-53584016D01*
X65297527Y-53501675D01*
X65298356Y-53495960D01*
X65295108Y-53413289D01*
X65295011Y-53408342D01*
X65295011Y-30618526D01*
X65295281Y-30610285D01*
X65299166Y-30551009D01*
X65299544Y-30545243D01*
X65289075Y-30456798D01*
X65288733Y-30453532D01*
X65281121Y-30370683D01*
X65281120Y-30370680D01*
X65280592Y-30364929D01*
X65279023Y-30359367D01*
X65278460Y-30356328D01*
X65276010Y-30344008D01*
X65275369Y-30340995D01*
X65274691Y-30335262D01*
X65272977Y-30329741D01*
X65248306Y-30250288D01*
X65247369Y-30247125D01*
X65224767Y-30166982D01*
X65224762Y-30166968D01*
X65223197Y-30161420D01*
X65220645Y-30156245D01*
X65219536Y-30153356D01*
X65214900Y-30141737D01*
X65213701Y-30138843D01*
X65211988Y-30133326D01*
X65170544Y-30054553D01*
X65169050Y-30051622D01*
X65132234Y-29976965D01*
X65132231Y-29976960D01*
X65129676Y-29971779D01*
X65126218Y-29967148D01*
X65124567Y-29964454D01*
X65117890Y-29953871D01*
X65116219Y-29951298D01*
X65113535Y-29946197D01*
X65058413Y-29876274D01*
X65056416Y-29873672D01*
X65006615Y-29806980D01*
X65006614Y-29806979D01*
X65003162Y-29802356D01*
X64942388Y-29746177D01*
X64938823Y-29742748D01*
X64412994Y-29216919D01*
X64407376Y-29210923D01*
X64405766Y-29209087D01*
X64375883Y-29144689D01*
X64385560Y-29074355D01*
X64431726Y-29020418D01*
X64500489Y-29000000D01*
X70594000Y-29000000D01*
X70662121Y-29020002D01*
X70708614Y-29073658D01*
X70720000Y-29126000D01*
X70720000Y-78936699D01*
X70699998Y-79004820D01*
X70669214Y-79037787D01*
X69463582Y-79934835D01*
X64049601Y-83963095D01*
X64033482Y-83975088D01*
X63966890Y-83999705D01*
X63958268Y-84000000D01*
X33052190Y-84000000D01*
X32984069Y-83979998D01*
X32963095Y-83963095D01*
X28036905Y-79036905D01*
X28002879Y-78974593D01*
X28000000Y-78947810D01*
X28000000Y-34057055D01*
X28020002Y-33988934D01*
X28042880Y-33962361D01*
X28752995Y-33339038D01*
X30697758Y-31631968D01*
X30702325Y-31628147D01*
X33965538Y-29027465D01*
X34031276Y-29000651D01*
X34044067Y-29000000D01*
X35068757Y-29000000D01*
X35136878Y-29020002D01*
G37*
%TD.AperFunction*%
%TA.AperFunction,Conductor*%
G36*
X58883174Y-63625502D02*
G01*
X58929667Y-63679158D01*
X58939771Y-63749432D01*
X58911928Y-63812067D01*
X58775895Y-63975629D01*
X58640920Y-64198061D01*
X58639111Y-64202375D01*
X58639110Y-64202377D01*
X58582222Y-64338041D01*
X58540305Y-64438001D01*
X58476261Y-64690177D01*
X58450194Y-64949049D01*
X58462677Y-65208930D01*
X58513435Y-65464112D01*
X58601355Y-65708989D01*
X58724504Y-65938180D01*
X58727299Y-65941923D01*
X58727301Y-65941926D01*
X58877385Y-66142913D01*
X58877390Y-66142919D01*
X58880177Y-66146651D01*
X58883486Y-66149931D01*
X58883491Y-66149937D01*
X59032967Y-66298114D01*
X59064954Y-66329823D01*
X59068716Y-66332581D01*
X59068719Y-66332584D01*
X59192190Y-66423116D01*
X59235298Y-66479527D01*
X59241065Y-66550289D01*
X59208779Y-66611779D01*
X59149591Y-66673717D01*
X59143104Y-66681727D01*
X59023098Y-66857649D01*
X59018000Y-66866623D01*
X58928338Y-67059783D01*
X58924775Y-67069470D01*
X58869389Y-67269183D01*
X58870912Y-67277607D01*
X58883292Y-67281000D01*
X60333000Y-67281000D01*
X60401121Y-67301002D01*
X60447614Y-67354658D01*
X60459000Y-67407000D01*
X60459000Y-67663000D01*
X60438998Y-67731121D01*
X60385342Y-67777614D01*
X60333000Y-67789000D01*
X58888225Y-67789000D01*
X58874694Y-67792973D01*
X58873257Y-67802966D01*
X58903565Y-67937446D01*
X58906645Y-67947275D01*
X58986770Y-68144603D01*
X58991413Y-68153794D01*
X59102694Y-68335388D01*
X59108777Y-68343699D01*
X59211544Y-68462336D01*
X59241027Y-68526921D01*
X59230912Y-68597193D01*
X59185393Y-68650203D01*
X59136375Y-68682341D01*
X58942265Y-68855591D01*
X58775895Y-69055629D01*
X58640920Y-69278061D01*
X58639111Y-69282375D01*
X58639110Y-69282377D01*
X58582222Y-69418041D01*
X58540305Y-69518001D01*
X58476261Y-69770177D01*
X58450194Y-70029049D01*
X58462677Y-70288930D01*
X58513435Y-70544112D01*
X58601355Y-70788989D01*
X58724504Y-71018180D01*
X58727299Y-71021923D01*
X58727301Y-71021926D01*
X58877385Y-71222913D01*
X58877390Y-71222919D01*
X58880177Y-71226651D01*
X58883486Y-71229931D01*
X58883491Y-71229937D01*
X59008706Y-71354064D01*
X59064954Y-71409823D01*
X59068716Y-71412581D01*
X59068719Y-71412584D01*
X59192190Y-71503116D01*
X59235298Y-71559527D01*
X59241065Y-71630289D01*
X59208779Y-71691779D01*
X59149591Y-71753717D01*
X59143104Y-71761727D01*
X59023098Y-71937649D01*
X59018000Y-71946623D01*
X58928338Y-72139783D01*
X58924775Y-72149470D01*
X58869389Y-72349183D01*
X58870912Y-72357607D01*
X58883292Y-72361000D01*
X60333000Y-72361000D01*
X60401121Y-72381002D01*
X60447614Y-72434658D01*
X60459000Y-72487000D01*
X60459000Y-72743000D01*
X60438998Y-72811121D01*
X60385342Y-72857614D01*
X60333000Y-72869000D01*
X58888225Y-72869000D01*
X58874694Y-72872973D01*
X58873257Y-72882966D01*
X58903565Y-73017446D01*
X58906645Y-73027275D01*
X58986770Y-73224603D01*
X58991413Y-73233794D01*
X59102694Y-73415388D01*
X59108777Y-73423699D01*
X59211544Y-73542336D01*
X59241027Y-73606921D01*
X59230912Y-73677193D01*
X59185393Y-73730203D01*
X59136375Y-73762341D01*
X58942265Y-73935591D01*
X58775895Y-74135629D01*
X58640920Y-74358061D01*
X58639111Y-74362375D01*
X58639110Y-74362377D01*
X58582222Y-74498041D01*
X58540305Y-74598001D01*
X58476261Y-74850177D01*
X58450194Y-75109049D01*
X58462677Y-75368930D01*
X58513435Y-75624112D01*
X58601355Y-75868989D01*
X58724504Y-76098180D01*
X58727299Y-76101923D01*
X58727301Y-76101926D01*
X58877385Y-76302913D01*
X58877390Y-76302919D01*
X58880177Y-76306651D01*
X58883492Y-76309937D01*
X58909224Y-76335446D01*
X58943521Y-76397610D01*
X58938764Y-76468447D01*
X58917393Y-76505496D01*
X58775895Y-76675629D01*
X58640920Y-76898061D01*
X58639111Y-76902375D01*
X58639110Y-76902377D01*
X58551267Y-77111860D01*
X58540305Y-77138001D01*
X58476261Y-77390177D01*
X58450194Y-77649049D01*
X58450418Y-77653715D01*
X58450418Y-77653720D01*
X58452250Y-77691851D01*
X58462677Y-77908930D01*
X58513435Y-78164112D01*
X58601355Y-78408989D01*
X58724504Y-78638180D01*
X58727299Y-78641923D01*
X58727301Y-78641926D01*
X58877385Y-78842913D01*
X58877390Y-78842919D01*
X58880177Y-78846651D01*
X58897175Y-78863501D01*
X58909224Y-78875446D01*
X58943521Y-78937610D01*
X58938764Y-79008447D01*
X58917393Y-79045496D01*
X58775895Y-79215629D01*
X58640920Y-79438061D01*
X58540305Y-79678001D01*
X58476261Y-79930177D01*
X58450194Y-80189049D01*
X58462677Y-80448930D01*
X58463590Y-80453519D01*
X58512402Y-80698919D01*
X58506074Y-80769633D01*
X58462519Y-80825700D01*
X58388823Y-80849500D01*
X34378743Y-80849500D01*
X34310622Y-80829498D01*
X34289648Y-80812595D01*
X32462147Y-78985095D01*
X32428122Y-78922783D01*
X32433186Y-78851968D01*
X32475733Y-78795132D01*
X32542253Y-78770321D01*
X32551242Y-78770000D01*
X40175799Y-78770000D01*
X40233002Y-78783733D01*
X40305941Y-78820898D01*
X40318187Y-78825599D01*
X40485533Y-78870439D01*
X40496860Y-78872386D01*
X40565739Y-78877807D01*
X40570665Y-78878000D01*
X41482885Y-78878000D01*
X41498124Y-78873525D01*
X41499329Y-78872135D01*
X41499963Y-78869219D01*
X41533987Y-78806906D01*
X41596299Y-78772880D01*
X41623084Y-78770000D01*
X41808621Y-78770000D01*
X41849197Y-78766272D01*
X41874815Y-78763918D01*
X41944481Y-78777603D01*
X41995688Y-78826780D01*
X42007240Y-78853891D01*
X42013475Y-78875124D01*
X42014865Y-78876329D01*
X42022548Y-78878000D01*
X42939335Y-78878000D01*
X42944261Y-78877807D01*
X43013140Y-78872386D01*
X43024467Y-78870439D01*
X43191813Y-78825599D01*
X43204059Y-78820898D01*
X43357682Y-78742622D01*
X43368696Y-78735470D01*
X43502689Y-78626966D01*
X43511966Y-78617689D01*
X43620470Y-78483696D01*
X43627622Y-78472682D01*
X43705898Y-78319059D01*
X43710599Y-78306813D01*
X43755439Y-78139467D01*
X43757386Y-78128140D01*
X43762807Y-78059261D01*
X43763000Y-78054335D01*
X43763000Y-77892115D01*
X43758525Y-77876876D01*
X43757135Y-77875671D01*
X43749452Y-77874000D01*
X43028998Y-77874000D01*
X42960877Y-77853998D01*
X42914384Y-77800342D01*
X42904650Y-77740737D01*
X42903600Y-77740723D01*
X42905265Y-77613529D01*
X42906367Y-77529385D01*
X42903609Y-77513335D01*
X42911788Y-77442811D01*
X42956796Y-77387904D01*
X43027790Y-77366000D01*
X43744885Y-77366000D01*
X43760124Y-77361525D01*
X43761329Y-77360135D01*
X43763000Y-77352452D01*
X43763000Y-77185666D01*
X43762807Y-77180739D01*
X43757386Y-77111860D01*
X43755439Y-77100533D01*
X43710599Y-76933187D01*
X43705898Y-76920941D01*
X43627622Y-76767318D01*
X43620470Y-76756304D01*
X43569770Y-76693694D01*
X43542445Y-76628166D01*
X43554885Y-76558268D01*
X43595781Y-76510935D01*
X43696868Y-76440678D01*
X43696871Y-76440676D01*
X43701476Y-76437475D01*
X43862475Y-76276476D01*
X43992418Y-76089512D01*
X44087199Y-75882492D01*
X44143823Y-75661959D01*
X44155500Y-75518392D01*
X44155500Y-74641608D01*
X44143823Y-74498041D01*
X44087199Y-74277508D01*
X43992418Y-74070488D01*
X43949086Y-74008141D01*
X43926633Y-73940788D01*
X43944159Y-73871988D01*
X43954627Y-73856941D01*
X44014383Y-73783149D01*
X44022790Y-73766651D01*
X44071306Y-73671431D01*
X44100320Y-73614488D01*
X44102348Y-73606921D01*
X44147818Y-73437223D01*
X44147819Y-73437217D01*
X44149312Y-73431645D01*
X44150091Y-73421747D01*
X44155307Y-73355477D01*
X44155307Y-73355470D01*
X44155500Y-73353021D01*
X44155500Y-73276500D01*
X44175502Y-73208379D01*
X44229158Y-73161886D01*
X44281500Y-73150500D01*
X47215244Y-73150500D01*
X47283365Y-73170502D01*
X47327511Y-73219297D01*
X47330215Y-73224603D01*
X47390617Y-73343149D01*
X47394770Y-73348278D01*
X47394773Y-73348282D01*
X47462280Y-73431645D01*
X47509743Y-73490257D01*
X47514874Y-73494412D01*
X47651718Y-73605227D01*
X47651722Y-73605230D01*
X47656851Y-73609383D01*
X47662729Y-73612378D01*
X47662732Y-73612380D01*
X47678408Y-73620367D01*
X47825512Y-73695320D01*
X47831885Y-73697028D01*
X47831886Y-73697028D01*
X48002777Y-73742818D01*
X48002783Y-73742819D01*
X48008355Y-73744312D01*
X48014111Y-73744765D01*
X48084523Y-73750307D01*
X48084530Y-73750307D01*
X48086979Y-73750500D01*
X48999630Y-73750500D01*
X49913020Y-73750499D01*
X49961943Y-73746649D01*
X49985891Y-73744765D01*
X49985893Y-73744765D01*
X49991645Y-73744312D01*
X50174488Y-73695320D01*
X50321592Y-73620367D01*
X50337268Y-73612380D01*
X50337271Y-73612378D01*
X50343149Y-73609383D01*
X50348278Y-73605230D01*
X50348282Y-73605227D01*
X50485126Y-73494412D01*
X50490257Y-73490257D01*
X50537720Y-73431645D01*
X50605227Y-73348282D01*
X50605230Y-73348278D01*
X50609383Y-73343149D01*
X50612381Y-73337267D01*
X50672309Y-73219649D01*
X50695320Y-73174488D01*
X50698697Y-73161886D01*
X50742818Y-72997223D01*
X50742819Y-72997217D01*
X50744312Y-72991645D01*
X50750500Y-72913021D01*
X50750499Y-71086980D01*
X50744312Y-71008355D01*
X50713512Y-70893408D01*
X50697028Y-70831886D01*
X50697028Y-70831885D01*
X50695320Y-70825512D01*
X50634206Y-70705568D01*
X50612380Y-70662732D01*
X50612378Y-70662729D01*
X50609383Y-70656851D01*
X50605230Y-70651722D01*
X50605227Y-70651718D01*
X50494412Y-70514874D01*
X50490257Y-70509743D01*
X50482573Y-70503521D01*
X50348282Y-70394773D01*
X50348278Y-70394770D01*
X50343149Y-70390617D01*
X50337271Y-70387622D01*
X50337268Y-70387620D01*
X50260334Y-70348420D01*
X50174488Y-70304680D01*
X50168114Y-70302972D01*
X49997223Y-70257182D01*
X49997217Y-70257181D01*
X49991645Y-70255688D01*
X49981747Y-70254909D01*
X49915477Y-70249693D01*
X49915470Y-70249693D01*
X49913021Y-70249500D01*
X49000370Y-70249500D01*
X48086980Y-70249501D01*
X48038057Y-70253351D01*
X48014109Y-70255235D01*
X48014107Y-70255235D01*
X48008355Y-70255688D01*
X47901729Y-70284258D01*
X47884293Y-70288930D01*
X47825512Y-70304680D01*
X47739666Y-70348420D01*
X47662732Y-70387620D01*
X47662729Y-70387622D01*
X47656851Y-70390617D01*
X47651722Y-70394770D01*
X47651718Y-70394773D01*
X47517427Y-70503521D01*
X47509743Y-70509743D01*
X47505588Y-70514874D01*
X47394773Y-70651718D01*
X47394770Y-70651722D01*
X47390617Y-70656851D01*
X47387620Y-70662733D01*
X47327511Y-70780703D01*
X47278763Y-70832318D01*
X47215244Y-70849500D01*
X44237568Y-70849500D01*
X44169447Y-70829498D01*
X44122954Y-70775842D01*
X44112850Y-70705568D01*
X44115524Y-70692174D01*
X44143823Y-70581959D01*
X44155500Y-70438392D01*
X44155500Y-69561608D01*
X44143823Y-69418041D01*
X44087199Y-69197508D01*
X43992418Y-68990488D01*
X43905495Y-68865421D01*
X43865871Y-68808410D01*
X43843418Y-68741057D01*
X43860944Y-68672257D01*
X43912883Y-68623854D01*
X43969336Y-68610500D01*
X47628793Y-68610500D01*
X47685995Y-68624233D01*
X47825512Y-68695320D01*
X47831885Y-68697028D01*
X47831886Y-68697028D01*
X48002777Y-68742818D01*
X48002783Y-68742819D01*
X48008355Y-68744312D01*
X48014111Y-68744765D01*
X48084523Y-68750307D01*
X48084530Y-68750307D01*
X48086979Y-68750500D01*
X48999630Y-68750500D01*
X49913020Y-68750499D01*
X49961943Y-68746649D01*
X49985891Y-68744765D01*
X49985893Y-68744765D01*
X49991645Y-68744312D01*
X50174488Y-68695320D01*
X50263029Y-68650206D01*
X50337268Y-68612380D01*
X50337271Y-68612378D01*
X50343149Y-68609383D01*
X50348278Y-68605230D01*
X50348282Y-68605227D01*
X50485126Y-68494412D01*
X50490257Y-68490257D01*
X50524951Y-68447414D01*
X50605227Y-68348282D01*
X50605230Y-68348278D01*
X50609383Y-68343149D01*
X50613338Y-68335388D01*
X50657360Y-68248989D01*
X50695320Y-68174488D01*
X50704655Y-68139649D01*
X50742818Y-67997223D01*
X50742819Y-67997217D01*
X50744312Y-67991645D01*
X50750500Y-67913021D01*
X50750499Y-66086980D01*
X50744312Y-66008355D01*
X50695320Y-65825512D01*
X50642829Y-65722492D01*
X50612380Y-65662732D01*
X50612378Y-65662729D01*
X50609383Y-65656851D01*
X50605230Y-65651722D01*
X50605227Y-65651718D01*
X50494412Y-65514874D01*
X50490257Y-65509743D01*
X50428252Y-65459532D01*
X50348282Y-65394773D01*
X50348278Y-65394770D01*
X50343149Y-65390617D01*
X50337271Y-65387622D01*
X50337268Y-65387620D01*
X50260334Y-65348420D01*
X50174488Y-65304680D01*
X50168114Y-65302972D01*
X49997223Y-65257182D01*
X49997217Y-65257181D01*
X49991645Y-65255688D01*
X49981747Y-65254909D01*
X49915477Y-65249693D01*
X49915470Y-65249693D01*
X49913021Y-65249500D01*
X49000370Y-65249500D01*
X48086980Y-65249501D01*
X48038057Y-65253351D01*
X48014109Y-65255235D01*
X48014107Y-65255235D01*
X48008355Y-65255688D01*
X47825512Y-65304680D01*
X47739666Y-65348420D01*
X47662732Y-65387620D01*
X47662729Y-65387622D01*
X47656851Y-65390617D01*
X47651722Y-65394770D01*
X47651718Y-65394773D01*
X47571748Y-65459532D01*
X47509743Y-65509743D01*
X47505588Y-65514874D01*
X47394773Y-65651718D01*
X47394770Y-65651722D01*
X47390617Y-65656851D01*
X47387622Y-65662729D01*
X47387620Y-65662732D01*
X47357171Y-65722492D01*
X47304680Y-65825512D01*
X47302972Y-65831885D01*
X47302972Y-65831886D01*
X47257182Y-66002777D01*
X47257181Y-66002783D01*
X47255688Y-66008355D01*
X47255235Y-66014109D01*
X47255235Y-66014111D01*
X47249694Y-66084520D01*
X47249500Y-66086979D01*
X47249500Y-66183500D01*
X47229498Y-66251621D01*
X47175842Y-66298114D01*
X47123500Y-66309500D01*
X43969336Y-66309500D01*
X43901215Y-66289498D01*
X43854722Y-66235842D01*
X43844618Y-66165568D01*
X43865871Y-66111590D01*
X43989217Y-65934118D01*
X43989218Y-65934116D01*
X43992418Y-65929512D01*
X44087199Y-65722492D01*
X44143823Y-65501959D01*
X44155500Y-65358392D01*
X44155500Y-64481608D01*
X44143823Y-64338041D01*
X44087199Y-64117508D01*
X43992418Y-63910488D01*
X43917997Y-63803410D01*
X43895544Y-63736057D01*
X43913070Y-63667257D01*
X43965009Y-63618854D01*
X44021462Y-63605500D01*
X58815053Y-63605500D01*
X58883174Y-63625502D01*
G37*
%TD.AperFunction*%
%TA.AperFunction,Conductor*%
G36*
X64246914Y-61085502D02*
G01*
X64293407Y-61139158D01*
X64300499Y-61158887D01*
X64302970Y-61168109D01*
X64302973Y-61168116D01*
X64304680Y-61174488D01*
X64330037Y-61224253D01*
X64386544Y-61335155D01*
X64390617Y-61343149D01*
X64394770Y-61348278D01*
X64394773Y-61348282D01*
X64439626Y-61403670D01*
X64509743Y-61490257D01*
X64514874Y-61494412D01*
X64651718Y-61605227D01*
X64651722Y-61605230D01*
X64656851Y-61609383D01*
X64662729Y-61612378D01*
X64662732Y-61612380D01*
X64718930Y-61641014D01*
X64825512Y-61695320D01*
X64831885Y-61697028D01*
X64831886Y-61697028D01*
X65002777Y-61742818D01*
X65002783Y-61742819D01*
X65008355Y-61744312D01*
X65014111Y-61744765D01*
X65084523Y-61750307D01*
X65084530Y-61750307D01*
X65086979Y-61750500D01*
X65115471Y-61750500D01*
X66443500Y-61750499D01*
X66511621Y-61770501D01*
X66558114Y-61824157D01*
X66569500Y-61876499D01*
X66569500Y-76710466D01*
X66549498Y-76778587D01*
X66532595Y-76799561D01*
X64537025Y-78795132D01*
X63967540Y-79364617D01*
X63905228Y-79398642D01*
X63834413Y-79393578D01*
X63785251Y-79360321D01*
X63741538Y-79312280D01*
X63710486Y-79248433D01*
X63718882Y-79177935D01*
X63768429Y-79120337D01*
X63772820Y-79117620D01*
X63772822Y-79117618D01*
X63776803Y-79115155D01*
X63854873Y-79049064D01*
X63971809Y-78950071D01*
X63971811Y-78950069D01*
X63975382Y-78947046D01*
X64146931Y-78751431D01*
X64151871Y-78743752D01*
X64285155Y-78536538D01*
X64287683Y-78532608D01*
X64394544Y-78295385D01*
X64429371Y-78171897D01*
X64463898Y-78049476D01*
X64463899Y-78049473D01*
X64465168Y-78044972D01*
X64482428Y-77909292D01*
X64497604Y-77790001D01*
X64497604Y-77789997D01*
X64498002Y-77786871D01*
X64500408Y-77695000D01*
X64488530Y-77535167D01*
X64481472Y-77440186D01*
X64481471Y-77440182D01*
X64481126Y-77435534D01*
X64423705Y-77181768D01*
X64420593Y-77173765D01*
X64331098Y-76943630D01*
X64331097Y-76943628D01*
X64329405Y-76939277D01*
X64200299Y-76713388D01*
X64039223Y-76509064D01*
X64036811Y-76506795D01*
X64005693Y-76443383D01*
X64013840Y-76372855D01*
X64035132Y-76338914D01*
X64143850Y-76214944D01*
X64146931Y-76211431D01*
X64222390Y-76094118D01*
X64285155Y-75996538D01*
X64287683Y-75992608D01*
X64394544Y-75755385D01*
X64422403Y-75656606D01*
X64463898Y-75509476D01*
X64463899Y-75509473D01*
X64465168Y-75504972D01*
X64481891Y-75373518D01*
X64497604Y-75250001D01*
X64497604Y-75249997D01*
X64498002Y-75246871D01*
X64500408Y-75155000D01*
X64481126Y-74895534D01*
X64423705Y-74641768D01*
X64422012Y-74637414D01*
X64331098Y-74403630D01*
X64331097Y-74403628D01*
X64329405Y-74399277D01*
X64200299Y-74173388D01*
X64039223Y-73969064D01*
X64036811Y-73966795D01*
X64005693Y-73903383D01*
X64013840Y-73832855D01*
X64035132Y-73798914D01*
X64143850Y-73674944D01*
X64146931Y-73671431D01*
X64165548Y-73642489D01*
X64285155Y-73456538D01*
X64287683Y-73452608D01*
X64394544Y-73215385D01*
X64456072Y-72997223D01*
X64463898Y-72969476D01*
X64463899Y-72969473D01*
X64465168Y-72964972D01*
X64478825Y-72857614D01*
X64497604Y-72710001D01*
X64497604Y-72709997D01*
X64498002Y-72706871D01*
X64500408Y-72615000D01*
X64481126Y-72355534D01*
X64423705Y-72101768D01*
X64363372Y-71946623D01*
X64331098Y-71863630D01*
X64331097Y-71863628D01*
X64329405Y-71859277D01*
X64200299Y-71633388D01*
X64039223Y-71429064D01*
X64036811Y-71426795D01*
X64005693Y-71363383D01*
X64013840Y-71292855D01*
X64035132Y-71258914D01*
X64143850Y-71134944D01*
X64146931Y-71131431D01*
X64177106Y-71084520D01*
X64285155Y-70916538D01*
X64287683Y-70912608D01*
X64394544Y-70675385D01*
X64422403Y-70576606D01*
X64463898Y-70429476D01*
X64463899Y-70429473D01*
X64465168Y-70424972D01*
X64481891Y-70293518D01*
X64497604Y-70170001D01*
X64497604Y-70169997D01*
X64498002Y-70166871D01*
X64500408Y-70075000D01*
X64481126Y-69815534D01*
X64423705Y-69561768D01*
X64422012Y-69557414D01*
X64331098Y-69323630D01*
X64331097Y-69323628D01*
X64329405Y-69319277D01*
X64200299Y-69093388D01*
X64039223Y-68889064D01*
X64036811Y-68886795D01*
X64005693Y-68823383D01*
X64013840Y-68752855D01*
X64035132Y-68718914D01*
X64095387Y-68650206D01*
X64146931Y-68591431D01*
X64165548Y-68562489D01*
X64285155Y-68376538D01*
X64287683Y-68372608D01*
X64394544Y-68135385D01*
X64435083Y-67991645D01*
X64463898Y-67889476D01*
X64463899Y-67889473D01*
X64465168Y-67884972D01*
X64478825Y-67777614D01*
X64497604Y-67630001D01*
X64497604Y-67629997D01*
X64498002Y-67626871D01*
X64500408Y-67535000D01*
X64481126Y-67275534D01*
X64423705Y-67021768D01*
X64363372Y-66866623D01*
X64331098Y-66783630D01*
X64331097Y-66783628D01*
X64329405Y-66779277D01*
X64200299Y-66553388D01*
X64039223Y-66349064D01*
X64036811Y-66346795D01*
X64005693Y-66283383D01*
X64013840Y-66212855D01*
X64035132Y-66178914D01*
X64109678Y-66093910D01*
X64146931Y-66051431D01*
X64170938Y-66014109D01*
X64253954Y-65885045D01*
X64287683Y-65832608D01*
X64349171Y-65696110D01*
X64392624Y-65599648D01*
X64392625Y-65599644D01*
X64394544Y-65595385D01*
X64419426Y-65507161D01*
X64463898Y-65349476D01*
X64463899Y-65349473D01*
X64465168Y-65344972D01*
X64481891Y-65213518D01*
X64497604Y-65090001D01*
X64497604Y-65089997D01*
X64498002Y-65086871D01*
X64498203Y-65079227D01*
X64500325Y-64998160D01*
X64500408Y-64995000D01*
X64481126Y-64735534D01*
X64423705Y-64481768D01*
X64422012Y-64477414D01*
X64331098Y-64243630D01*
X64331097Y-64243628D01*
X64329405Y-64239277D01*
X64200299Y-64013388D01*
X64039223Y-63809064D01*
X63849714Y-63630792D01*
X63808703Y-63602341D01*
X63761230Y-63569408D01*
X63716660Y-63514145D01*
X63709043Y-63443558D01*
X63744111Y-63376630D01*
X63779052Y-63341811D01*
X63785730Y-63333965D01*
X63910003Y-63161020D01*
X63915313Y-63152183D01*
X64009670Y-62961267D01*
X64013469Y-62951672D01*
X64075377Y-62747910D01*
X64077555Y-62737837D01*
X64078986Y-62726962D01*
X64076775Y-62712778D01*
X64063617Y-62709000D01*
X62617000Y-62709000D01*
X62548879Y-62688998D01*
X62502386Y-62635342D01*
X62491000Y-62583000D01*
X62491000Y-62327000D01*
X62511002Y-62258879D01*
X62564658Y-62212386D01*
X62617000Y-62201000D01*
X64063344Y-62201000D01*
X64076875Y-62197027D01*
X64078180Y-62187947D01*
X64036214Y-62020875D01*
X64032894Y-62011124D01*
X63947972Y-61815814D01*
X63943105Y-61806739D01*
X63827426Y-61627926D01*
X63821136Y-61619757D01*
X63741538Y-61532280D01*
X63710486Y-61468434D01*
X63718882Y-61397936D01*
X63768429Y-61340337D01*
X63772820Y-61337620D01*
X63772822Y-61337618D01*
X63776803Y-61335155D01*
X63836642Y-61284498D01*
X63971809Y-61170071D01*
X63971811Y-61170069D01*
X63975382Y-61167046D01*
X64026794Y-61108421D01*
X64086747Y-61070395D01*
X64121525Y-61065500D01*
X64178793Y-61065500D01*
X64246914Y-61085502D01*
G37*
%TD.AperFunction*%
%TA.AperFunction,Conductor*%
G36*
X58531133Y-31170502D02*
G01*
X58577626Y-31224158D01*
X58587730Y-31294432D01*
X58579210Y-31325224D01*
X58540305Y-31418001D01*
X58476261Y-31670177D01*
X58450194Y-31929049D01*
X58462677Y-32188930D01*
X58513435Y-32444112D01*
X58601355Y-32688989D01*
X58724504Y-32918180D01*
X58727299Y-32921923D01*
X58727301Y-32921926D01*
X58877385Y-33122913D01*
X58877390Y-33122919D01*
X58880177Y-33126651D01*
X58883486Y-33129931D01*
X58883491Y-33129937D01*
X58902739Y-33149017D01*
X58937035Y-33211180D01*
X58932280Y-33282017D01*
X58889981Y-33339038D01*
X58823570Y-33364139D01*
X58814033Y-33364500D01*
X57876499Y-33364500D01*
X57808378Y-33344498D01*
X57761885Y-33290842D01*
X57750499Y-33238500D01*
X57750499Y-33086980D01*
X57744312Y-33008355D01*
X57695320Y-32825512D01*
X57651580Y-32739666D01*
X57612380Y-32662732D01*
X57612378Y-32662729D01*
X57609383Y-32656851D01*
X57605230Y-32651722D01*
X57605227Y-32651718D01*
X57494412Y-32514874D01*
X57490257Y-32509743D01*
X57403554Y-32439532D01*
X57348282Y-32394773D01*
X57348278Y-32394770D01*
X57343149Y-32390617D01*
X57337271Y-32387622D01*
X57337268Y-32387620D01*
X57260334Y-32348420D01*
X57174488Y-32304680D01*
X57168114Y-32302972D01*
X56997223Y-32257182D01*
X56997217Y-32257181D01*
X56991645Y-32255688D01*
X56981747Y-32254909D01*
X56915477Y-32249693D01*
X56915470Y-32249693D01*
X56913021Y-32249500D01*
X56000370Y-32249500D01*
X55086980Y-32249501D01*
X55038057Y-32253351D01*
X55014109Y-32255235D01*
X55014107Y-32255235D01*
X55008355Y-32255688D01*
X54825512Y-32304680D01*
X54739666Y-32348420D01*
X54662732Y-32387620D01*
X54662729Y-32387622D01*
X54656851Y-32390617D01*
X54651722Y-32394770D01*
X54651718Y-32394773D01*
X54596446Y-32439532D01*
X54509743Y-32509743D01*
X54505588Y-32514874D01*
X54394773Y-32651718D01*
X54394770Y-32651722D01*
X54390617Y-32656851D01*
X54387622Y-32662729D01*
X54387620Y-32662732D01*
X54348420Y-32739666D01*
X54304680Y-32825512D01*
X54302972Y-32831885D01*
X54302972Y-32831886D01*
X54257182Y-33002777D01*
X54257181Y-33002783D01*
X54255688Y-33008355D01*
X54255235Y-33014109D01*
X54255235Y-33014111D01*
X54249694Y-33084520D01*
X54249500Y-33086979D01*
X54249501Y-34913020D01*
X54255688Y-34991645D01*
X54304680Y-35174488D01*
X54330037Y-35224253D01*
X54356973Y-35277118D01*
X54390617Y-35343149D01*
X54394770Y-35348278D01*
X54394773Y-35348282D01*
X54416886Y-35375589D01*
X54509743Y-35490257D01*
X54514874Y-35494412D01*
X54651718Y-35605227D01*
X54651722Y-35605230D01*
X54656851Y-35609383D01*
X54662729Y-35612378D01*
X54662732Y-35612380D01*
X54722500Y-35642833D01*
X54825512Y-35695320D01*
X54831885Y-35697028D01*
X54831886Y-35697028D01*
X55002777Y-35742818D01*
X55002783Y-35742819D01*
X55008355Y-35744312D01*
X55014111Y-35744765D01*
X55084523Y-35750307D01*
X55084530Y-35750307D01*
X55086979Y-35750500D01*
X55999630Y-35750500D01*
X56913020Y-35750499D01*
X56961943Y-35746649D01*
X56985891Y-35744765D01*
X56985893Y-35744765D01*
X56991645Y-35744312D01*
X57174488Y-35695320D01*
X57180368Y-35692324D01*
X57180371Y-35692323D01*
X57206059Y-35679234D01*
X57263263Y-35665500D01*
X58827147Y-35665500D01*
X58895268Y-35685502D01*
X58915852Y-35702017D01*
X59064954Y-35849823D01*
X59068716Y-35852581D01*
X59068719Y-35852584D01*
X59192190Y-35943116D01*
X59235298Y-35999527D01*
X59241065Y-36070289D01*
X59208779Y-36131779D01*
X59149591Y-36193717D01*
X59143104Y-36201727D01*
X59023098Y-36377649D01*
X59018000Y-36386623D01*
X58928338Y-36579783D01*
X58924775Y-36589470D01*
X58869389Y-36789183D01*
X58870912Y-36797607D01*
X58883292Y-36801000D01*
X60333000Y-36801000D01*
X60401121Y-36821002D01*
X60447614Y-36874658D01*
X60459000Y-36927000D01*
X60459000Y-37183000D01*
X60438998Y-37251121D01*
X60385342Y-37297614D01*
X60333000Y-37309000D01*
X58888225Y-37309000D01*
X58874694Y-37312973D01*
X58873257Y-37322966D01*
X58903565Y-37457446D01*
X58906645Y-37467275D01*
X58986770Y-37664603D01*
X58991413Y-37673794D01*
X59102694Y-37855388D01*
X59108777Y-37863699D01*
X59211544Y-37982336D01*
X59241027Y-38046921D01*
X59230912Y-38117193D01*
X59185393Y-38170203D01*
X59136375Y-38202341D01*
X58942265Y-38375591D01*
X58775895Y-38575629D01*
X58640920Y-38798061D01*
X58540305Y-39038001D01*
X58539154Y-39042533D01*
X58539153Y-39042536D01*
X58511172Y-39152714D01*
X58476261Y-39290177D01*
X58450194Y-39549049D01*
X58450418Y-39553715D01*
X58450418Y-39553720D01*
X58455372Y-39656851D01*
X58462677Y-39808930D01*
X58513435Y-40064112D01*
X58601355Y-40308989D01*
X58724504Y-40538180D01*
X58727299Y-40541923D01*
X58727301Y-40541926D01*
X58877385Y-40742913D01*
X58877390Y-40742919D01*
X58880177Y-40746651D01*
X58883492Y-40749937D01*
X58909224Y-40775446D01*
X58943521Y-40837610D01*
X58938764Y-40908447D01*
X58917393Y-40945496D01*
X58775895Y-41115629D01*
X58640920Y-41338061D01*
X58540305Y-41578001D01*
X58476261Y-41830177D01*
X58450194Y-42089049D01*
X58462677Y-42348930D01*
X58513435Y-42604112D01*
X58601355Y-42848989D01*
X58724504Y-43078180D01*
X58727299Y-43081923D01*
X58727301Y-43081926D01*
X58877385Y-43282913D01*
X58877390Y-43282919D01*
X58880177Y-43286651D01*
X58883492Y-43289937D01*
X58909224Y-43315446D01*
X58943521Y-43377610D01*
X58938764Y-43448447D01*
X58917393Y-43485496D01*
X58775895Y-43655629D01*
X58640920Y-43878061D01*
X58639111Y-43882375D01*
X58639110Y-43882377D01*
X58607097Y-43958721D01*
X58540305Y-44118001D01*
X58476261Y-44370177D01*
X58450194Y-44629049D01*
X58462677Y-44888930D01*
X58513435Y-45144112D01*
X58601355Y-45388989D01*
X58724504Y-45618180D01*
X58727299Y-45621923D01*
X58727301Y-45621926D01*
X58877385Y-45822913D01*
X58877390Y-45822919D01*
X58880177Y-45826651D01*
X58883486Y-45829931D01*
X58883491Y-45829937D01*
X59050597Y-45995591D01*
X59064954Y-46009823D01*
X59068716Y-46012581D01*
X59068719Y-46012584D01*
X59192190Y-46103116D01*
X59235298Y-46159527D01*
X59241065Y-46230289D01*
X59208779Y-46291779D01*
X59149591Y-46353717D01*
X59143104Y-46361727D01*
X59023098Y-46537649D01*
X59018000Y-46546623D01*
X58928338Y-46739783D01*
X58924775Y-46749470D01*
X58869389Y-46949183D01*
X58870912Y-46957607D01*
X58883292Y-46961000D01*
X60333000Y-46961000D01*
X60401121Y-46981002D01*
X60447614Y-47034658D01*
X60459000Y-47087000D01*
X60459000Y-47343000D01*
X60438998Y-47411121D01*
X60385342Y-47457614D01*
X60333000Y-47469000D01*
X58888225Y-47469000D01*
X58874694Y-47472973D01*
X58873257Y-47482966D01*
X58903565Y-47617446D01*
X58906645Y-47627275D01*
X58986770Y-47824603D01*
X58991413Y-47833794D01*
X59102694Y-48015388D01*
X59108777Y-48023699D01*
X59211544Y-48142336D01*
X59241027Y-48206921D01*
X59230912Y-48277193D01*
X59185393Y-48330203D01*
X59136375Y-48362341D01*
X58942265Y-48535591D01*
X58775895Y-48735629D01*
X58640920Y-48958061D01*
X58639111Y-48962375D01*
X58639110Y-48962377D01*
X58609056Y-49034049D01*
X58540305Y-49198001D01*
X58476261Y-49450177D01*
X58450194Y-49709049D01*
X58462677Y-49968930D01*
X58513435Y-50224112D01*
X58515014Y-50228509D01*
X58517327Y-50234953D01*
X58521519Y-50305826D01*
X58486729Y-50367714D01*
X58424003Y-50400969D01*
X58353255Y-50395032D01*
X58341541Y-50389798D01*
X58174488Y-50304680D01*
X58168114Y-50302972D01*
X57997223Y-50257182D01*
X57997217Y-50257181D01*
X57991645Y-50255688D01*
X57981747Y-50254909D01*
X57915477Y-50249693D01*
X57915470Y-50249693D01*
X57913021Y-50249500D01*
X57000370Y-50249500D01*
X56086980Y-50249501D01*
X56038057Y-50253351D01*
X56014109Y-50255235D01*
X56014107Y-50255235D01*
X56008355Y-50255688D01*
X55825512Y-50304680D01*
X55750012Y-50343149D01*
X55662732Y-50387620D01*
X55662729Y-50387622D01*
X55656851Y-50390617D01*
X55651722Y-50394770D01*
X55651718Y-50394773D01*
X55603890Y-50433504D01*
X55509743Y-50509743D01*
X55505588Y-50514874D01*
X55394773Y-50651718D01*
X55394770Y-50651722D01*
X55390617Y-50656851D01*
X55387622Y-50662729D01*
X55387620Y-50662732D01*
X55370146Y-50697028D01*
X55304680Y-50825512D01*
X55302972Y-50831885D01*
X55302972Y-50831886D01*
X55257182Y-51002777D01*
X55257181Y-51002783D01*
X55255688Y-51008355D01*
X55249500Y-51086979D01*
X55249501Y-52913020D01*
X55255688Y-52991645D01*
X55304680Y-53174488D01*
X55390617Y-53343149D01*
X55394770Y-53348278D01*
X55394773Y-53348282D01*
X55443409Y-53408342D01*
X55509743Y-53490257D01*
X55514874Y-53494412D01*
X55651718Y-53605227D01*
X55651722Y-53605230D01*
X55656851Y-53609383D01*
X55662729Y-53612378D01*
X55662732Y-53612380D01*
X55739666Y-53651580D01*
X55825512Y-53695320D01*
X55831885Y-53697028D01*
X55831886Y-53697028D01*
X56002777Y-53742818D01*
X56002783Y-53742819D01*
X56008355Y-53744312D01*
X56014111Y-53744765D01*
X56084523Y-53750307D01*
X56084530Y-53750307D01*
X56086979Y-53750500D01*
X56999630Y-53750500D01*
X57913020Y-53750499D01*
X57961943Y-53746649D01*
X57985891Y-53744765D01*
X57985893Y-53744765D01*
X57991645Y-53744312D01*
X58174488Y-53695320D01*
X58260334Y-53651580D01*
X58337268Y-53612380D01*
X58337271Y-53612378D01*
X58343149Y-53609383D01*
X58348278Y-53605230D01*
X58348282Y-53605227D01*
X58485122Y-53494415D01*
X58490257Y-53490257D01*
X58494413Y-53485124D01*
X58497136Y-53482402D01*
X58559449Y-53448379D01*
X58586229Y-53445500D01*
X58827147Y-53445500D01*
X58895268Y-53465502D01*
X58915852Y-53482017D01*
X59064954Y-53629823D01*
X59068716Y-53632581D01*
X59068719Y-53632584D01*
X59192190Y-53723116D01*
X59235298Y-53779527D01*
X59241065Y-53850289D01*
X59208779Y-53911779D01*
X59149591Y-53973717D01*
X59143104Y-53981727D01*
X59023098Y-54157649D01*
X59018000Y-54166623D01*
X58928338Y-54359783D01*
X58924775Y-54369470D01*
X58869389Y-54569183D01*
X58870912Y-54577607D01*
X58883292Y-54581000D01*
X60333000Y-54581000D01*
X60401121Y-54601002D01*
X60447614Y-54654658D01*
X60459000Y-54707000D01*
X60459000Y-54963000D01*
X60438998Y-55031121D01*
X60385342Y-55077614D01*
X60333000Y-55089000D01*
X58888225Y-55089000D01*
X58874694Y-55092973D01*
X58873257Y-55102966D01*
X58903565Y-55237446D01*
X58906645Y-55247275D01*
X58986770Y-55444603D01*
X58991413Y-55453794D01*
X59102694Y-55635388D01*
X59108777Y-55643699D01*
X59211544Y-55762336D01*
X59241027Y-55826921D01*
X59230912Y-55897193D01*
X59185393Y-55950203D01*
X59136375Y-55982341D01*
X59100782Y-56014109D01*
X58957707Y-56141808D01*
X58893566Y-56172246D01*
X58823151Y-56163174D01*
X58768819Y-56117474D01*
X58748194Y-56057689D01*
X58744765Y-56014109D01*
X58744765Y-56014107D01*
X58744312Y-56008355D01*
X58695320Y-55825512D01*
X58651580Y-55739666D01*
X58612380Y-55662732D01*
X58612378Y-55662729D01*
X58609383Y-55656851D01*
X58605230Y-55651722D01*
X58605227Y-55651718D01*
X58494412Y-55514874D01*
X58490257Y-55509743D01*
X58409816Y-55444603D01*
X58348282Y-55394773D01*
X58348278Y-55394770D01*
X58343149Y-55390617D01*
X58337271Y-55387622D01*
X58337268Y-55387620D01*
X58260334Y-55348420D01*
X58174488Y-55304680D01*
X58168114Y-55302972D01*
X57997223Y-55257182D01*
X57997217Y-55257181D01*
X57991645Y-55255688D01*
X57981747Y-55254909D01*
X57915477Y-55249693D01*
X57915470Y-55249693D01*
X57913021Y-55249500D01*
X57000370Y-55249500D01*
X56086980Y-55249501D01*
X56038057Y-55253351D01*
X56014109Y-55255235D01*
X56014107Y-55255235D01*
X56008355Y-55255688D01*
X55825512Y-55304680D01*
X55739666Y-55348420D01*
X55662732Y-55387620D01*
X55662729Y-55387622D01*
X55656851Y-55390617D01*
X55651722Y-55394770D01*
X55651718Y-55394773D01*
X55590184Y-55444603D01*
X55509743Y-55509743D01*
X55505588Y-55514874D01*
X55394773Y-55651718D01*
X55394770Y-55651722D01*
X55390617Y-55656851D01*
X55387622Y-55662729D01*
X55387620Y-55662732D01*
X55348420Y-55739666D01*
X55304680Y-55825512D01*
X55302972Y-55831885D01*
X55302972Y-55831886D01*
X55257182Y-56002777D01*
X55257181Y-56002783D01*
X55255688Y-56008355D01*
X55255235Y-56014109D01*
X55255235Y-56014111D01*
X55250005Y-56080568D01*
X55249500Y-56086979D01*
X55249501Y-56832740D01*
X55249501Y-57318258D01*
X55229499Y-57386379D01*
X55175843Y-57432872D01*
X55105569Y-57442976D01*
X55040989Y-57413483D01*
X55034406Y-57407353D01*
X53187405Y-55560353D01*
X53153380Y-55498041D01*
X53150500Y-55471258D01*
X53150500Y-38014571D01*
X53150511Y-38012922D01*
X53151791Y-37915128D01*
X53151867Y-37909346D01*
X53150888Y-37903646D01*
X53142456Y-37854574D01*
X53141165Y-37844767D01*
X53136610Y-37795196D01*
X53136610Y-37795195D01*
X53136081Y-37789440D01*
X53125542Y-37752072D01*
X53122634Y-37739219D01*
X53117038Y-37706648D01*
X53117037Y-37706644D01*
X53116059Y-37700953D01*
X53114059Y-37695531D01*
X53096827Y-37648822D01*
X53093770Y-37639412D01*
X53080257Y-37591498D01*
X53080253Y-37591488D01*
X53078686Y-37585931D01*
X53061512Y-37551106D01*
X53056306Y-37538987D01*
X53055075Y-37535650D01*
X53042873Y-37502575D01*
X53039924Y-37497618D01*
X53039921Y-37497612D01*
X53014460Y-37454818D01*
X53009748Y-37446140D01*
X52985165Y-37396290D01*
X52961936Y-37365182D01*
X52954615Y-37354225D01*
X52934762Y-37320856D01*
X52898118Y-37279071D01*
X52891909Y-37271405D01*
X52858651Y-37226867D01*
X52854418Y-37222954D01*
X52854410Y-37222945D01*
X52830147Y-37200517D01*
X52820950Y-37191077D01*
X52795345Y-37161881D01*
X52751704Y-37127477D01*
X52744183Y-37121054D01*
X52707616Y-37087252D01*
X52703381Y-37083337D01*
X52670547Y-37062620D01*
X52659778Y-37055009D01*
X52633832Y-37034555D01*
X52629292Y-37030976D01*
X52624184Y-37028288D01*
X52624180Y-37028286D01*
X52580113Y-37005102D01*
X52571544Y-37000154D01*
X52529440Y-36973588D01*
X52524554Y-36970505D01*
X52488482Y-36956114D01*
X52476527Y-36950603D01*
X52442164Y-36932523D01*
X52406103Y-36921326D01*
X52389093Y-36916044D01*
X52379767Y-36912741D01*
X52333529Y-36894294D01*
X52328160Y-36892152D01*
X52290087Y-36884579D01*
X52277303Y-36881332D01*
X52245749Y-36871534D01*
X52245743Y-36871533D01*
X52240227Y-36869820D01*
X52185037Y-36863288D01*
X52175280Y-36861743D01*
X52120775Y-36850901D01*
X52114999Y-36850825D01*
X52114996Y-36850825D01*
X52081953Y-36850392D01*
X52075939Y-36850003D01*
X52075930Y-36850154D01*
X52072228Y-36849936D01*
X52068545Y-36849500D01*
X52014571Y-36849500D01*
X52012922Y-36849489D01*
X52011975Y-36849477D01*
X51909346Y-36848133D01*
X51903647Y-36849112D01*
X51893765Y-36849500D01*
X44893013Y-36849500D01*
X44824892Y-36829498D01*
X44803918Y-36812595D01*
X44192405Y-36201082D01*
X44158379Y-36138770D01*
X44155500Y-36111987D01*
X44155500Y-35941608D01*
X44154976Y-35935155D01*
X44144258Y-35803394D01*
X44143823Y-35798041D01*
X44087199Y-35577508D01*
X44078193Y-35557836D01*
X43994753Y-35375589D01*
X43992418Y-35370488D01*
X43976985Y-35348282D01*
X43926660Y-35275874D01*
X43862475Y-35183524D01*
X43701476Y-35022525D01*
X43514512Y-34892582D01*
X43386005Y-34833747D01*
X43312597Y-34800138D01*
X43312595Y-34800137D01*
X43307492Y-34797801D01*
X43086959Y-34741177D01*
X43021547Y-34735857D01*
X42945943Y-34729707D01*
X42945931Y-34729707D01*
X42943392Y-34729500D01*
X40566608Y-34729500D01*
X40564069Y-34729707D01*
X40564057Y-34729707D01*
X40488453Y-34735857D01*
X40423041Y-34741177D01*
X40202508Y-34797801D01*
X40197405Y-34800137D01*
X40197403Y-34800138D01*
X40123995Y-34833747D01*
X39995488Y-34892582D01*
X39808524Y-35022525D01*
X39647525Y-35183524D01*
X39646216Y-35185407D01*
X39588046Y-35224253D01*
X39550427Y-35230000D01*
X32977124Y-35230000D01*
X32909003Y-35209998D01*
X32889606Y-35193657D01*
X32889223Y-35194064D01*
X32748758Y-35061927D01*
X32712846Y-35000682D01*
X32715746Y-34929745D01*
X32745996Y-34881057D01*
X36439648Y-31187405D01*
X36501960Y-31153379D01*
X36528743Y-31150500D01*
X58463012Y-31150500D01*
X58531133Y-31170502D01*
G37*
%TD.AperFunction*%
%TD*%
M02*
