%TF.GenerationSoftware,KiCad,Pcbnew,(6.0.1)*%
%TF.CreationDate,2022-02-08T16:55:05-03:00*%
%TF.ProjectId,connector rpi,636f6e6e-6563-4746-9f72-207270692e6b,rev?*%
%TF.SameCoordinates,Original*%
%TF.FileFunction,Copper,L2,Bot*%
%TF.FilePolarity,Positive*%
%FSLAX46Y46*%
G04 Gerber Fmt 4.6, Leading zero omitted, Abs format (unit mm)*
G04 Created by KiCad (PCBNEW (6.0.1)) date 2022-02-08 16:55:05*
%MOMM*%
%LPD*%
G01*
G04 APERTURE LIST*
%TA.AperFunction,ComponentPad*%
%ADD10R,1.700000X1.700000*%
%TD*%
%TA.AperFunction,ComponentPad*%
%ADD11O,1.700000X1.700000*%
%TD*%
%TA.AperFunction,ViaPad*%
%ADD12C,0.800000*%
%TD*%
G04 APERTURE END LIST*
D10*
%TO.P,REF\u002A\u002A,1*%
%TO.N,N/C*%
X49000000Y-67000000D03*
%TD*%
%TO.P,REF\u002A\u002A,1*%
%TO.N,Net-(C1-Pad2)*%
X46000000Y-49000000D03*
%TD*%
%TO.P,REF\u002A\u002A,1*%
%TO.N,Net-(C1-Pad2)*%
X56000000Y-34000000D03*
%TD*%
%TO.P,REF\u002A\u002A,1*%
%TO.N,Net-(C2-Pad5)*%
X47000000Y-41000000D03*
%TD*%
D11*
%TO.P,C1,1,GND*%
%TO.N,GND*%
X31595000Y-77620000D03*
%TO.P,C1,2,5V*%
%TO.N,Net-(C1-Pad2)*%
X31595000Y-75080000D03*
%TO.P,C1,3,SCK*%
%TO.N,Net-(C1-Pad3)*%
X31595000Y-72540000D03*
%TO.P,C1,4,MOSI*%
%TO.N,Net-(C1-Pad4)*%
X31595000Y-70000000D03*
%TO.P,C1,5,RES*%
%TO.N,Net-(C1-Pad5)*%
X31595000Y-67460000D03*
%TO.P,C1,6,DC*%
%TO.N,Net-(C1-Pad6)*%
X31595000Y-64920000D03*
%TO.P,C1,7,BL*%
%TO.N,Net-(C1-Pad7)*%
X31595000Y-62380000D03*
%TD*%
D10*
%TO.P,REF\u002A\u002A,1*%
%TO.N,Net-(C1-Pad3)*%
X49000000Y-72000000D03*
%TD*%
%TO.P,REF\u002A\u002A,1*%
%TO.N,Net-(C2-Pad5)*%
X57000000Y-52000000D03*
%TD*%
D11*
%TO.P,C2,1,GND*%
%TO.N,GND*%
X31595000Y-51620000D03*
%TO.P,C2,2,5V*%
%TO.N,Net-(C1-Pad2)*%
X31595000Y-49080000D03*
%TO.P,C2,3,SCK*%
%TO.N,Net-(C1-Pad3)*%
X31595000Y-46540000D03*
%TO.P,C2,4,MOSI*%
%TO.N,Net-(C1-Pad4)*%
X31595000Y-44000000D03*
%TO.P,C2,5,RES*%
%TO.N,Net-(C2-Pad5)*%
X31595000Y-41460000D03*
%TO.P,C2,6,DC*%
%TO.N,Net-(C1-Pad6)*%
X31595000Y-38920000D03*
%TO.P,C2,7,BL*%
%TO.N,Net-(C2-Pad7)*%
X31595000Y-36380000D03*
%TD*%
D10*
%TO.P,J1,1,3V3*%
%TO.N,unconnected-(J1-Pad1)*%
X62745000Y-31975000D03*
D11*
%TO.P,J1,2,5V*%
%TO.N,unconnected-(J1-Pad2)*%
X60205000Y-31975000D03*
%TO.P,J1,3,SDA/GPIO2*%
%TO.N,unconnected-(J1-Pad3)*%
X62745000Y-34515000D03*
%TO.P,J1,4,5V*%
%TO.N,Net-(C1-Pad2)*%
X60205000Y-34515000D03*
%TO.P,J1,5,SCL/GPIO3*%
%TO.N,unconnected-(J1-Pad5)*%
X62745000Y-37055000D03*
%TO.P,J1,6,GND*%
%TO.N,GND*%
X60205000Y-37055000D03*
%TO.P,J1,7,GCLK0/GPIO4*%
%TO.N,unconnected-(J1-Pad7)*%
X62745000Y-39595000D03*
%TO.P,J1,8,GPIO14/TXD*%
%TO.N,unconnected-(J1-Pad8)*%
X60205000Y-39595000D03*
%TO.P,J1,9,GND*%
%TO.N,GND*%
X62745000Y-42135000D03*
%TO.P,J1,10,GPIO15/RXD*%
%TO.N,unconnected-(J1-Pad10)*%
X60205000Y-42135000D03*
%TO.P,J1,11,GPIO17*%
%TO.N,unconnected-(J1-Pad11)*%
X62745000Y-44675000D03*
%TO.P,J1,12,GPIO18/PWM0*%
%TO.N,unconnected-(J1-Pad12)*%
X60205000Y-44675000D03*
%TO.P,J1,13,GPIO27*%
%TO.N,unconnected-(J1-Pad13)*%
X62745000Y-47215000D03*
%TO.P,J1,14,GND*%
%TO.N,GND*%
X60205000Y-47215000D03*
%TO.P,J1,15,GPIO22*%
%TO.N,unconnected-(J1-Pad15)*%
X62745000Y-49755000D03*
%TO.P,J1,16,GPIO23*%
%TO.N,unconnected-(J1-Pad16)*%
X60205000Y-49755000D03*
%TO.P,J1,17,3V3*%
%TO.N,unconnected-(J1-Pad17)*%
X62745000Y-52295000D03*
%TO.P,J1,18,GPIO24*%
%TO.N,Net-(C2-Pad5)*%
X60205000Y-52295000D03*
%TO.P,J1,19,MOSI0/GPIO10*%
%TO.N,Net-(C1-Pad4)*%
X62745000Y-54835000D03*
%TO.P,J1,20,GND*%
%TO.N,GND*%
X60205000Y-54835000D03*
%TO.P,J1,21,MISO0/GPIO9*%
%TO.N,Net-(C1-Pad6)*%
X62745000Y-57375000D03*
%TO.P,J1,22,GPIO25*%
%TO.N,Net-(C1-Pad5)*%
X60205000Y-57375000D03*
%TO.P,J1,23,SCLK0/GPIO11*%
%TO.N,Net-(C1-Pad3)*%
X62745000Y-59915000D03*
%TO.P,J1,24,~{CE0}/GPIO8*%
%TO.N,Net-(C2-Pad7)*%
X60205000Y-59915000D03*
%TO.P,J1,25,GND*%
%TO.N,GND*%
X62745000Y-62455000D03*
%TO.P,J1,26,~{CE1}/GPIO7*%
%TO.N,Net-(C1-Pad7)*%
X60205000Y-62455000D03*
%TO.P,J1,27,ID_SD/GPIO0*%
%TO.N,unconnected-(J1-Pad27)*%
X62745000Y-64995000D03*
%TO.P,J1,28,ID_SC/GPIO1*%
%TO.N,unconnected-(J1-Pad28)*%
X60205000Y-64995000D03*
%TO.P,J1,29,GCLK1/GPIO5*%
%TO.N,unconnected-(J1-Pad29)*%
X62745000Y-67535000D03*
%TO.P,J1,30,GND*%
%TO.N,GND*%
X60205000Y-67535000D03*
%TO.P,J1,31,GCLK2/GPIO6*%
%TO.N,unconnected-(J1-Pad31)*%
X62745000Y-70075000D03*
%TO.P,J1,32,PWM0/GPIO12*%
%TO.N,unconnected-(J1-Pad32)*%
X60205000Y-70075000D03*
%TO.P,J1,33,PWM1/GPIO13*%
%TO.N,unconnected-(J1-Pad33)*%
X62745000Y-72615000D03*
%TO.P,J1,34,GND*%
%TO.N,GND*%
X60205000Y-72615000D03*
%TO.P,J1,35,GPIO19/MISO1*%
%TO.N,unconnected-(J1-Pad35)*%
X62745000Y-75155000D03*
%TO.P,J1,36,GPIO16*%
%TO.N,unconnected-(J1-Pad36)*%
X60205000Y-75155000D03*
%TO.P,J1,37,GPIO26*%
%TO.N,unconnected-(J1-Pad37)*%
X62745000Y-77695000D03*
%TO.P,J1,38,GPIO20/MOSI1*%
%TO.N,unconnected-(J1-Pad38)*%
X60205000Y-77695000D03*
%TO.P,J1,39,GND*%
%TO.N,GND*%
X62745000Y-80235000D03*
%TO.P,J1,40,GPIO21/SCLK1*%
%TO.N,unconnected-(J1-Pad40)*%
X60205000Y-80235000D03*
%TD*%
D10*
%TO.P,REF\u002A\u002A,1*%
%TO.N,Net-(C1-Pad3)*%
X66000000Y-60000000D03*
%TD*%
%TO.P,REF\u002A\u002A,1*%
%TO.N,Net-(C1-Pad5)*%
X57000000Y-57000000D03*
%TD*%
D12*
%TO.N,GND*%
X32000000Y-54000000D03*
%TD*%
M02*
