M48
; DRILL file {KiCad (6.0.1)} date mar 08 feb 2022 16:55:12
; FORMAT={-:-/ absolute / inch / decimal}
; #@! TF.CreationDate,2022-02-08T16:55:12-03:00
; #@! TF.GenerationSoftware,Kicad,Pcbnew,(6.0.1)
; #@! TF.FileFunction,Plated,1,2,PTH
FMAT,2
INCH
; #@! TA.AperFunction,Plated,PTH,ViaDrill
T1C0.0157
; #@! TA.AperFunction,Plated,PTH,ComponentDrill
T2C0.0394
%
G90
G05
T1
X1.2598Y-2.126
T2
X1.2439Y-1.4323
X1.2439Y-1.5323
X1.2439Y-1.6323
X1.2439Y-1.7323
X1.2439Y-1.8323
X1.2439Y-1.9323
X1.2439Y-2.0323
X1.2439Y-2.4559
X1.2439Y-2.5559
X1.2439Y-2.6559
X1.2439Y-2.7559
X1.2439Y-2.8559
X1.2439Y-2.9559
X1.2439Y-3.0559
X1.811Y-1.9291
X1.8504Y-1.6142
X1.9291Y-2.6378
X1.9291Y-2.8346
X2.2047Y-1.3386
X2.2441Y-2.0472
X2.2441Y-2.2441
X2.3703Y-1.2589
X2.3703Y-1.3589
X2.3703Y-1.4589
X2.3703Y-1.5589
X2.3703Y-1.6589
X2.3703Y-1.7589
X2.3703Y-1.8589
X2.3703Y-1.9589
X2.3703Y-2.0589
X2.3703Y-2.1589
X2.3703Y-2.2589
X2.3703Y-2.3589
X2.3703Y-2.4589
X2.3703Y-2.5589
X2.3703Y-2.6589
X2.3703Y-2.7589
X2.3703Y-2.8589
X2.3703Y-2.9589
X2.3703Y-3.0589
X2.3703Y-3.1589
X2.4703Y-1.2589
X2.4703Y-1.3589
X2.4703Y-1.4589
X2.4703Y-1.5589
X2.4703Y-1.6589
X2.4703Y-1.7589
X2.4703Y-1.8589
X2.4703Y-1.9589
X2.4703Y-2.0589
X2.4703Y-2.1589
X2.4703Y-2.2589
X2.4703Y-2.3589
X2.4703Y-2.4589
X2.4703Y-2.5589
X2.4703Y-2.6589
X2.4703Y-2.7589
X2.4703Y-2.8589
X2.4703Y-2.9589
X2.4703Y-3.0589
X2.4703Y-3.1589
X2.5984Y-2.3622
T0
M30
